<svg width="58" height="58" viewBox="0 0 58 58" fill="none" xmlns="http://www.w3.org/2000/svg">
<rect x="0.5" y="0.5" width="57" height="57" rx="28.5" stroke="url(#paint0_linear_146_2812)"/>
<path d="M27.5305 36V21.86H30.1905V36H27.5305ZM27.6505 20.26C27.3971 19.9533 27.2038 19.66 27.0705 19.38C26.9371 19.1 26.8705 18.8 26.8705 18.48C26.8705 18.0267 26.9905 17.62 27.2305 17.26C27.4705 16.8867 27.7838 16.6 28.1705 16.4C28.5571 16.1867 28.9838 16.08 29.4505 16.08C29.7038 16.08 29.9638 16.1133 30.2305 16.18C30.4971 16.2467 30.7238 16.3467 30.9105 16.48L30.2305 17.7C30.1105 17.6333 29.9905 17.5933 29.8705 17.58C29.7638 17.5533 29.6505 17.54 29.5305 17.54C29.2105 17.54 28.9638 17.6267 28.7905 17.8C28.6171 17.96 28.5305 18.18 28.5305 18.46C28.5305 18.62 28.5638 18.7733 28.6305 18.92C28.6971 19.0667 28.7971 19.2267 28.9305 19.4L27.6505 20.26ZM26.4305 20.42V18.96H31.2705V20.42H26.4305Z" fill="white"/>
<defs>
<linearGradient id="paint0_linear_146_2812" x1="58" y1="58" x2="-25.7073" y2="28.0049" gradientUnits="userSpaceOnUse">
<stop stop-color="#00B3F8"/>
<stop offset="0.25" stop-color="#0B9ADE"/>
<stop offset="0.5" stop-color="#0F82C3"/>
<stop offset="1" stop-color="#063F75"/>
</linearGradient>
</defs>
</svg>
