<svg width="1440" height="972" viewBox="0 0 1440 972" fill="none" xmlns="http://www.w3.org/2000/svg">
<g clip-path="url(#clip0_1_7034)">
<rect width="1440" height="972" fill="black"/>
<g filter="url(#filter0_f_1_7034)">
<rect width="96.4282" height="578.569" transform="matrix(-0.707107 -0.707107 -0.707107 0.707107 958 378.185)" fill="#00B3F8"/>
</g>
<g opacity="0.309311" filter="url(#filter1_d_1_7034)">
<path d="M371.281 273.726C371.281 273.174 371.729 272.726 372.281 272.726C372.834 272.726 373.281 273.174 373.281 273.726V275.726C373.281 276.279 372.834 276.726 372.281 276.726C371.729 276.726 371.281 276.279 371.281 275.726V273.726Z" fill="#00D4FF"/>
</g>
<g opacity="0.445997" filter="url(#filter2_d_1_7034)">
<path d="M126.422 91.9327C126.422 91.1043 127.093 90.4327 127.922 90.4327C128.75 90.4327 129.422 91.1043 129.422 91.9327C129.422 92.7612 128.75 93.4327 127.922 93.4327C127.093 93.4327 126.422 92.7612 126.422 91.9327Z" fill="#00B3F8"/>
</g>
<g opacity="0.300043" filter="url(#filter3_d_1_7034)">
<path d="M1004.22 309.124C1004.22 308.572 1004.67 308.124 1005.22 308.124H1008.22C1008.77 308.124 1009.22 308.572 1009.22 309.124C1009.22 309.676 1008.77 310.124 1008.22 310.124H1005.22C1004.67 310.124 1004.22 309.676 1004.22 309.124Z" fill="#00D4FF"/>
</g>
<g opacity="0.806171" filter="url(#filter4_d_1_7034)">
<path d="M670.672 331.788C670.672 330.684 671.567 329.788 672.672 329.788H673.672C674.776 329.788 675.672 330.684 675.672 331.788C675.672 332.893 674.776 333.788 673.672 333.788H672.672C671.567 333.788 670.672 332.893 670.672 331.788Z" fill="#00B3F8"/>
</g>
<g opacity="0.300042" filter="url(#filter5_d_1_7034)">
<path d="M442.359 133.906C442.359 133.354 442.807 132.906 443.359 132.906C443.912 132.906 444.359 133.354 444.359 133.906V135.906C444.359 136.458 443.912 136.906 443.359 136.906C442.807 136.906 442.359 136.458 442.359 135.906V133.906Z" fill="#00D4FF"/>
</g>
<g opacity="0.53122" filter="url(#filter6_d_1_7034)">
<path d="M1385.98 234.161C1385.98 233.885 1386.21 233.661 1386.48 233.661H1390.48C1390.76 233.661 1390.98 233.885 1390.98 234.161C1390.98 234.437 1390.76 234.661 1390.48 234.661H1386.48C1386.21 234.661 1385.98 234.437 1385.98 234.161Z" fill="#00B3F8"/>
</g>
<g opacity="0.673704" filter="url(#filter7_d_1_7034)">
<path d="M22.1719 371.783C22.1719 370.679 23.0673 369.783 24.1719 369.783C25.2764 369.783 26.1719 370.679 26.1719 371.783C26.1719 372.888 25.2764 373.783 24.1719 373.783C23.0673 373.783 22.1719 372.888 22.1719 371.783Z" fill="#00D4FF"/>
</g>
<g opacity="0.335295" filter="url(#filter8_d_1_7034)">
<path d="M772.312 158.234C772.312 157.682 772.76 157.234 773.312 157.234C773.865 157.234 774.312 157.682 774.312 158.234C774.312 158.786 773.865 159.234 773.312 159.234C772.76 159.234 772.312 158.786 772.312 158.234Z" fill="#00B3F8"/>
</g>
<g opacity="0.384977" filter="url(#filter9_d_1_7034)">
<path d="M38.8281 152.557C38.8281 151.728 39.4997 151.057 40.3281 151.057C41.1566 151.057 41.8281 151.728 41.8281 152.557C41.8281 153.385 41.1566 154.057 40.3281 154.057C39.4997 154.057 38.8281 153.385 38.8281 152.557Z" fill="#00D4FF"/>
</g>
<g opacity="0.361545" filter="url(#filter10_d_1_7034)">
<path d="M1051.58 170.895C1051.58 170.066 1052.25 169.395 1053.08 169.395H1054.08C1054.91 169.395 1055.58 170.066 1055.58 170.895C1055.58 171.723 1054.91 172.395 1054.08 172.395H1053.08C1052.25 172.395 1051.58 171.723 1051.58 170.895Z" fill="#00B3F8"/>
</g>
<g opacity="0.76201" filter="url(#filter11_d_1_7034)">
<path d="M1206.09 513.105C1206.09 512.553 1206.54 512.105 1207.09 512.105H1208.09C1208.65 512.105 1209.09 512.553 1209.09 513.105C1209.09 513.658 1208.65 514.105 1208.09 514.105H1207.09C1206.54 514.105 1206.09 513.658 1206.09 513.105Z" fill="#00D4FF"/>
</g>
<g opacity="0.65025" filter="url(#filter12_d_1_7034)">
<path d="M623.188 118.906C623.188 117.525 624.307 116.406 625.688 116.406C627.068 116.406 628.188 117.525 628.188 118.906C628.188 120.286 627.068 121.406 625.688 121.406C624.307 121.406 623.188 120.286 623.188 118.906Z" fill="#00B3F8"/>
</g>
<g opacity="0.309311" filter="url(#filter13_d_1_7034)">
<path d="M1093.72 699.274C1093.72 699.826 1093.27 700.274 1092.72 700.274C1092.17 700.274 1091.72 699.826 1091.72 699.274V697.274C1091.72 696.721 1092.17 696.274 1092.72 696.274C1093.27 696.274 1093.72 696.721 1093.72 697.274V699.274Z" fill="#00D4FF"/>
</g>
<g opacity="0.445997" filter="url(#filter14_d_1_7034)">
<path d="M1338.58 881.067C1338.58 881.896 1337.91 882.567 1337.08 882.567C1336.25 882.567 1335.58 881.896 1335.58 881.067C1335.58 880.239 1336.25 879.567 1337.08 879.567C1337.91 879.567 1338.58 880.239 1338.58 881.067Z" fill="#00B3F8"/>
</g>
<g opacity="0.300043" filter="url(#filter15_d_1_7034)">
<path d="M460.781 663.876C460.781 664.428 460.334 664.876 459.781 664.876H456.781C456.229 664.876 455.781 664.428 455.781 663.876C455.781 663.324 456.229 662.876 456.781 662.876H459.781C460.334 662.876 460.781 663.324 460.781 663.876Z" fill="#00D4FF"/>
</g>
<g opacity="0.806171" filter="url(#filter16_d_1_7034)">
<path d="M794.328 641.212C794.328 642.316 793.433 643.212 792.328 643.212H791.328C790.224 643.212 789.328 642.316 789.328 641.212C789.328 640.107 790.224 639.212 791.328 639.212H792.328C793.433 639.212 794.328 640.107 794.328 641.212Z" fill="#00B3F8"/>
</g>
<g opacity="0.300042" filter="url(#filter17_d_1_7034)">
<path d="M1022.64 839.094C1022.64 839.646 1022.19 840.094 1021.64 840.094C1021.09 840.094 1020.64 839.646 1020.64 839.094V837.094C1020.64 836.542 1021.09 836.094 1021.64 836.094C1022.19 836.094 1022.64 836.542 1022.64 837.094V839.094Z" fill="#00D4FF"/>
</g>
<g opacity="0.53122" filter="url(#filter18_d_1_7034)">
<path d="M79.0156 738.839C79.0156 739.115 78.7918 739.339 78.5156 739.339H74.5156C74.2395 739.339 74.0156 739.115 74.0156 738.839C74.0156 738.563 74.2395 738.339 74.5156 738.339H78.5156C78.7918 738.339 79.0156 738.563 79.0156 738.839Z" fill="#00B3F8"/>
</g>
<g opacity="0.673704" filter="url(#filter19_d_1_7034)">
<path d="M1442.83 601.217C1442.83 602.321 1441.93 603.217 1440.83 603.217C1439.72 603.217 1438.83 602.321 1438.83 601.217C1438.83 600.112 1439.72 599.217 1440.83 599.217C1441.93 599.217 1442.83 600.112 1442.83 601.217Z" fill="#00D4FF"/>
</g>
<g opacity="0.335295" filter="url(#filter20_d_1_7034)">
<path d="M692.688 814.766C692.688 815.318 692.24 815.766 691.688 815.766C691.135 815.766 690.688 815.318 690.688 814.766C690.688 814.214 691.135 813.766 691.688 813.766C692.24 813.766 692.688 814.214 692.688 814.766Z" fill="#00B3F8"/>
</g>
<g opacity="0.384977" filter="url(#filter21_d_1_7034)">
<path d="M1426.17 820.443C1426.17 821.272 1425.5 821.943 1424.67 821.943C1423.84 821.943 1423.17 821.272 1423.17 820.443C1423.17 819.615 1423.84 818.943 1424.67 818.943C1425.5 818.943 1426.17 819.615 1426.17 820.443Z" fill="#00D4FF"/>
</g>
<g opacity="0.361545" filter="url(#filter22_d_1_7034)">
<path d="M413.422 802.105C413.422 802.934 412.75 803.605 411.922 803.605H410.922C410.093 803.605 409.422 802.934 409.422 802.105C409.422 801.277 410.093 800.605 410.922 800.605H411.922C412.75 800.605 413.422 801.277 413.422 802.105Z" fill="#00B3F8"/>
</g>
<g opacity="0.76201" filter="url(#filter23_d_1_7034)">
<path d="M258.906 459.895C258.906 460.447 258.459 460.895 257.906 460.895H256.906C256.354 460.895 255.906 460.447 255.906 459.895C255.906 459.342 256.354 458.895 256.906 458.895H257.906C258.459 458.895 258.906 459.342 258.906 459.895Z" fill="#00D4FF"/>
</g>
<g opacity="0.65025" filter="url(#filter24_d_1_7034)">
<path d="M841.812 854.094C841.812 855.475 840.693 856.594 839.312 856.594C837.932 856.594 836.812 855.475 836.812 854.094C836.812 852.714 837.932 851.594 839.312 851.594C840.693 851.594 841.812 852.714 841.812 854.094Z" fill="#00B3F8"/>
</g>
</g>
<defs>
<filter id="filter0_f_1_7034" x="180.704" y="10" width="1077.3" height="1077.3" filterUnits="userSpaceOnUse" color-interpolation-filters="sRGB">
<feFlood flood-opacity="0" result="BackgroundImageFix"/>
<feBlend mode="normal" in="SourceGraphic" in2="BackgroundImageFix" result="shape"/>
<feGaussianBlur stdDeviation="150" result="effect1_foregroundBlur_1_7034"/>
</filter>
<filter id="filter1_d_1_7034" x="365.281" y="266.726" width="14" height="16" filterUnits="userSpaceOnUse" color-interpolation-filters="sRGB">
<feFlood flood-opacity="0" result="BackgroundImageFix"/>
<feColorMatrix in="SourceAlpha" type="matrix" values="0 0 0 0 0 0 0 0 0 0 0 0 0 0 0 0 0 0 127 0" result="hardAlpha"/>
<feOffset/>
<feGaussianBlur stdDeviation="3"/>
<feComposite in2="hardAlpha" operator="out"/>
<feColorMatrix type="matrix" values="0 0 0 0 0 0 0 0 0 0.831373 0 0 0 0 1 0 0 0 1 0"/>
<feBlend mode="normal" in2="BackgroundImageFix" result="effect1_dropShadow_1_7034"/>
<feBlend mode="normal" in="SourceGraphic" in2="effect1_dropShadow_1_7034" result="shape"/>
</filter>
<filter id="filter2_d_1_7034" x="120.422" y="84.4327" width="15" height="15" filterUnits="userSpaceOnUse" color-interpolation-filters="sRGB">
<feFlood flood-opacity="0" result="BackgroundImageFix"/>
<feColorMatrix in="SourceAlpha" type="matrix" values="0 0 0 0 0 0 0 0 0 0 0 0 0 0 0 0 0 0 127 0" result="hardAlpha"/>
<feOffset/>
<feGaussianBlur stdDeviation="3"/>
<feComposite in2="hardAlpha" operator="out"/>
<feColorMatrix type="matrix" values="0 0 0 0 0.772549 0 0 0 0 0.627451 0 0 0 0 0.34902 0 0 0 1 0"/>
<feBlend mode="normal" in2="BackgroundImageFix" result="effect1_dropShadow_1_7034"/>
<feBlend mode="normal" in="SourceGraphic" in2="effect1_dropShadow_1_7034" result="shape"/>
</filter>
<filter id="filter3_d_1_7034" x="998.219" y="302.124" width="17" height="14" filterUnits="userSpaceOnUse" color-interpolation-filters="sRGB">
<feFlood flood-opacity="0" result="BackgroundImageFix"/>
<feColorMatrix in="SourceAlpha" type="matrix" values="0 0 0 0 0 0 0 0 0 0 0 0 0 0 0 0 0 0 127 0" result="hardAlpha"/>
<feOffset/>
<feGaussianBlur stdDeviation="3"/>
<feComposite in2="hardAlpha" operator="out"/>
<feColorMatrix type="matrix" values="0 0 0 0 0 0 0 0 0 0.831373 0 0 0 0 1 0 0 0 1 0"/>
<feBlend mode="normal" in2="BackgroundImageFix" result="effect1_dropShadow_1_7034"/>
<feBlend mode="normal" in="SourceGraphic" in2="effect1_dropShadow_1_7034" result="shape"/>
</filter>
<filter id="filter4_d_1_7034" x="664.672" y="323.788" width="17" height="16" filterUnits="userSpaceOnUse" color-interpolation-filters="sRGB">
<feFlood flood-opacity="0" result="BackgroundImageFix"/>
<feColorMatrix in="SourceAlpha" type="matrix" values="0 0 0 0 0 0 0 0 0 0 0 0 0 0 0 0 0 0 127 0" result="hardAlpha"/>
<feOffset/>
<feGaussianBlur stdDeviation="3"/>
<feComposite in2="hardAlpha" operator="out"/>
<feColorMatrix type="matrix" values="0 0 0 0 0.772549 0 0 0 0 0.627451 0 0 0 0 0.34902 0 0 0 1 0"/>
<feBlend mode="normal" in2="BackgroundImageFix" result="effect1_dropShadow_1_7034"/>
<feBlend mode="normal" in="SourceGraphic" in2="effect1_dropShadow_1_7034" result="shape"/>
</filter>
<filter id="filter5_d_1_7034" x="436.359" y="126.906" width="14" height="16" filterUnits="userSpaceOnUse" color-interpolation-filters="sRGB">
<feFlood flood-opacity="0" result="BackgroundImageFix"/>
<feColorMatrix in="SourceAlpha" type="matrix" values="0 0 0 0 0 0 0 0 0 0 0 0 0 0 0 0 0 0 127 0" result="hardAlpha"/>
<feOffset/>
<feGaussianBlur stdDeviation="3"/>
<feComposite in2="hardAlpha" operator="out"/>
<feColorMatrix type="matrix" values="0 0 0 0 0 0 0 0 0 0.831373 0 0 0 0 1 0 0 0 1 0"/>
<feBlend mode="normal" in2="BackgroundImageFix" result="effect1_dropShadow_1_7034"/>
<feBlend mode="normal" in="SourceGraphic" in2="effect1_dropShadow_1_7034" result="shape"/>
</filter>
<filter id="filter6_d_1_7034" x="1379.98" y="227.661" width="17" height="13" filterUnits="userSpaceOnUse" color-interpolation-filters="sRGB">
<feFlood flood-opacity="0" result="BackgroundImageFix"/>
<feColorMatrix in="SourceAlpha" type="matrix" values="0 0 0 0 0 0 0 0 0 0 0 0 0 0 0 0 0 0 127 0" result="hardAlpha"/>
<feOffset/>
<feGaussianBlur stdDeviation="3"/>
<feComposite in2="hardAlpha" operator="out"/>
<feColorMatrix type="matrix" values="0 0 0 0 0.772549 0 0 0 0 0.627451 0 0 0 0 0.34902 0 0 0 1 0"/>
<feBlend mode="normal" in2="BackgroundImageFix" result="effect1_dropShadow_1_7034"/>
<feBlend mode="normal" in="SourceGraphic" in2="effect1_dropShadow_1_7034" result="shape"/>
</filter>
<filter id="filter7_d_1_7034" x="16.1719" y="363.783" width="16" height="16" filterUnits="userSpaceOnUse" color-interpolation-filters="sRGB">
<feFlood flood-opacity="0" result="BackgroundImageFix"/>
<feColorMatrix in="SourceAlpha" type="matrix" values="0 0 0 0 0 0 0 0 0 0 0 0 0 0 0 0 0 0 127 0" result="hardAlpha"/>
<feOffset/>
<feGaussianBlur stdDeviation="3"/>
<feComposite in2="hardAlpha" operator="out"/>
<feColorMatrix type="matrix" values="0 0 0 0 0 0 0 0 0 0.831373 0 0 0 0 1 0 0 0 1 0"/>
<feBlend mode="normal" in2="BackgroundImageFix" result="effect1_dropShadow_1_7034"/>
<feBlend mode="normal" in="SourceGraphic" in2="effect1_dropShadow_1_7034" result="shape"/>
</filter>
<filter id="filter8_d_1_7034" x="766.312" y="151.234" width="14" height="14" filterUnits="userSpaceOnUse" color-interpolation-filters="sRGB">
<feFlood flood-opacity="0" result="BackgroundImageFix"/>
<feColorMatrix in="SourceAlpha" type="matrix" values="0 0 0 0 0 0 0 0 0 0 0 0 0 0 0 0 0 0 127 0" result="hardAlpha"/>
<feOffset/>
<feGaussianBlur stdDeviation="3"/>
<feComposite in2="hardAlpha" operator="out"/>
<feColorMatrix type="matrix" values="0 0 0 0 0.772549 0 0 0 0 0.627451 0 0 0 0 0.34902 0 0 0 1 0"/>
<feBlend mode="normal" in2="BackgroundImageFix" result="effect1_dropShadow_1_7034"/>
<feBlend mode="normal" in="SourceGraphic" in2="effect1_dropShadow_1_7034" result="shape"/>
</filter>
<filter id="filter9_d_1_7034" x="32.8281" y="145.057" width="15" height="15" filterUnits="userSpaceOnUse" color-interpolation-filters="sRGB">
<feFlood flood-opacity="0" result="BackgroundImageFix"/>
<feColorMatrix in="SourceAlpha" type="matrix" values="0 0 0 0 0 0 0 0 0 0 0 0 0 0 0 0 0 0 127 0" result="hardAlpha"/>
<feOffset/>
<feGaussianBlur stdDeviation="3"/>
<feComposite in2="hardAlpha" operator="out"/>
<feColorMatrix type="matrix" values="0 0 0 0 0 0 0 0 0 0.831373 0 0 0 0 1 0 0 0 1 0"/>
<feBlend mode="normal" in2="BackgroundImageFix" result="effect1_dropShadow_1_7034"/>
<feBlend mode="normal" in="SourceGraphic" in2="effect1_dropShadow_1_7034" result="shape"/>
</filter>
<filter id="filter10_d_1_7034" x="1045.58" y="163.395" width="16" height="15" filterUnits="userSpaceOnUse" color-interpolation-filters="sRGB">
<feFlood flood-opacity="0" result="BackgroundImageFix"/>
<feColorMatrix in="SourceAlpha" type="matrix" values="0 0 0 0 0 0 0 0 0 0 0 0 0 0 0 0 0 0 127 0" result="hardAlpha"/>
<feOffset/>
<feGaussianBlur stdDeviation="3"/>
<feComposite in2="hardAlpha" operator="out"/>
<feColorMatrix type="matrix" values="0 0 0 0 0.772549 0 0 0 0 0.627451 0 0 0 0 0.34902 0 0 0 1 0"/>
<feBlend mode="normal" in2="BackgroundImageFix" result="effect1_dropShadow_1_7034"/>
<feBlend mode="normal" in="SourceGraphic" in2="effect1_dropShadow_1_7034" result="shape"/>
</filter>
<filter id="filter11_d_1_7034" x="1200.09" y="506.105" width="15" height="14" filterUnits="userSpaceOnUse" color-interpolation-filters="sRGB">
<feFlood flood-opacity="0" result="BackgroundImageFix"/>
<feColorMatrix in="SourceAlpha" type="matrix" values="0 0 0 0 0 0 0 0 0 0 0 0 0 0 0 0 0 0 127 0" result="hardAlpha"/>
<feOffset/>
<feGaussianBlur stdDeviation="3"/>
<feComposite in2="hardAlpha" operator="out"/>
<feColorMatrix type="matrix" values="0 0 0 0 0 0 0 0 0 0.831373 0 0 0 0 1 0 0 0 1 0"/>
<feBlend mode="normal" in2="BackgroundImageFix" result="effect1_dropShadow_1_7034"/>
<feBlend mode="normal" in="SourceGraphic" in2="effect1_dropShadow_1_7034" result="shape"/>
</filter>
<filter id="filter12_d_1_7034" x="617.188" y="110.406" width="17" height="17" filterUnits="userSpaceOnUse" color-interpolation-filters="sRGB">
<feFlood flood-opacity="0" result="BackgroundImageFix"/>
<feColorMatrix in="SourceAlpha" type="matrix" values="0 0 0 0 0 0 0 0 0 0 0 0 0 0 0 0 0 0 127 0" result="hardAlpha"/>
<feOffset/>
<feGaussianBlur stdDeviation="3"/>
<feComposite in2="hardAlpha" operator="out"/>
<feColorMatrix type="matrix" values="0 0 0 0 0.772549 0 0 0 0 0.627451 0 0 0 0 0.34902 0 0 0 1 0"/>
<feBlend mode="normal" in2="BackgroundImageFix" result="effect1_dropShadow_1_7034"/>
<feBlend mode="normal" in="SourceGraphic" in2="effect1_dropShadow_1_7034" result="shape"/>
</filter>
<filter id="filter13_d_1_7034" x="1085.72" y="690.274" width="14" height="16" filterUnits="userSpaceOnUse" color-interpolation-filters="sRGB">
<feFlood flood-opacity="0" result="BackgroundImageFix"/>
<feColorMatrix in="SourceAlpha" type="matrix" values="0 0 0 0 0 0 0 0 0 0 0 0 0 0 0 0 0 0 127 0" result="hardAlpha"/>
<feOffset/>
<feGaussianBlur stdDeviation="3"/>
<feComposite in2="hardAlpha" operator="out"/>
<feColorMatrix type="matrix" values="0 0 0 0 0 0 0 0 0 0.831373 0 0 0 0 1 0 0 0 1 0"/>
<feBlend mode="normal" in2="BackgroundImageFix" result="effect1_dropShadow_1_7034"/>
<feBlend mode="normal" in="SourceGraphic" in2="effect1_dropShadow_1_7034" result="shape"/>
</filter>
<filter id="filter14_d_1_7034" x="1329.58" y="873.567" width="15" height="15" filterUnits="userSpaceOnUse" color-interpolation-filters="sRGB">
<feFlood flood-opacity="0" result="BackgroundImageFix"/>
<feColorMatrix in="SourceAlpha" type="matrix" values="0 0 0 0 0 0 0 0 0 0 0 0 0 0 0 0 0 0 127 0" result="hardAlpha"/>
<feOffset/>
<feGaussianBlur stdDeviation="3"/>
<feComposite in2="hardAlpha" operator="out"/>
<feColorMatrix type="matrix" values="0 0 0 0 0.772549 0 0 0 0 0.627451 0 0 0 0 0.34902 0 0 0 1 0"/>
<feBlend mode="normal" in2="BackgroundImageFix" result="effect1_dropShadow_1_7034"/>
<feBlend mode="normal" in="SourceGraphic" in2="effect1_dropShadow_1_7034" result="shape"/>
</filter>
<filter id="filter15_d_1_7034" x="449.781" y="656.876" width="17" height="14" filterUnits="userSpaceOnUse" color-interpolation-filters="sRGB">
<feFlood flood-opacity="0" result="BackgroundImageFix"/>
<feColorMatrix in="SourceAlpha" type="matrix" values="0 0 0 0 0 0 0 0 0 0 0 0 0 0 0 0 0 0 127 0" result="hardAlpha"/>
<feOffset/>
<feGaussianBlur stdDeviation="3"/>
<feComposite in2="hardAlpha" operator="out"/>
<feColorMatrix type="matrix" values="0 0 0 0 0 0 0 0 0 0.831373 0 0 0 0 1 0 0 0 1 0"/>
<feBlend mode="normal" in2="BackgroundImageFix" result="effect1_dropShadow_1_7034"/>
<feBlend mode="normal" in="SourceGraphic" in2="effect1_dropShadow_1_7034" result="shape"/>
</filter>
<filter id="filter16_d_1_7034" x="783.328" y="633.212" width="17" height="16" filterUnits="userSpaceOnUse" color-interpolation-filters="sRGB">
<feFlood flood-opacity="0" result="BackgroundImageFix"/>
<feColorMatrix in="SourceAlpha" type="matrix" values="0 0 0 0 0 0 0 0 0 0 0 0 0 0 0 0 0 0 127 0" result="hardAlpha"/>
<feOffset/>
<feGaussianBlur stdDeviation="3"/>
<feComposite in2="hardAlpha" operator="out"/>
<feColorMatrix type="matrix" values="0 0 0 0 0.772549 0 0 0 0 0.627451 0 0 0 0 0.34902 0 0 0 1 0"/>
<feBlend mode="normal" in2="BackgroundImageFix" result="effect1_dropShadow_1_7034"/>
<feBlend mode="normal" in="SourceGraphic" in2="effect1_dropShadow_1_7034" result="shape"/>
</filter>
<filter id="filter17_d_1_7034" x="1014.64" y="830.094" width="14" height="16" filterUnits="userSpaceOnUse" color-interpolation-filters="sRGB">
<feFlood flood-opacity="0" result="BackgroundImageFix"/>
<feColorMatrix in="SourceAlpha" type="matrix" values="0 0 0 0 0 0 0 0 0 0 0 0 0 0 0 0 0 0 127 0" result="hardAlpha"/>
<feOffset/>
<feGaussianBlur stdDeviation="3"/>
<feComposite in2="hardAlpha" operator="out"/>
<feColorMatrix type="matrix" values="0 0 0 0 0 0 0 0 0 0.831373 0 0 0 0 1 0 0 0 1 0"/>
<feBlend mode="normal" in2="BackgroundImageFix" result="effect1_dropShadow_1_7034"/>
<feBlend mode="normal" in="SourceGraphic" in2="effect1_dropShadow_1_7034" result="shape"/>
</filter>
<filter id="filter18_d_1_7034" x="68.0156" y="732.339" width="17" height="13" filterUnits="userSpaceOnUse" color-interpolation-filters="sRGB">
<feFlood flood-opacity="0" result="BackgroundImageFix"/>
<feColorMatrix in="SourceAlpha" type="matrix" values="0 0 0 0 0 0 0 0 0 0 0 0 0 0 0 0 0 0 127 0" result="hardAlpha"/>
<feOffset/>
<feGaussianBlur stdDeviation="3"/>
<feComposite in2="hardAlpha" operator="out"/>
<feColorMatrix type="matrix" values="0 0 0 0 0.772549 0 0 0 0 0.627451 0 0 0 0 0.34902 0 0 0 1 0"/>
<feBlend mode="normal" in2="BackgroundImageFix" result="effect1_dropShadow_1_7034"/>
<feBlend mode="normal" in="SourceGraphic" in2="effect1_dropShadow_1_7034" result="shape"/>
</filter>
<filter id="filter19_d_1_7034" x="1432.83" y="593.217" width="16" height="16" filterUnits="userSpaceOnUse" color-interpolation-filters="sRGB">
<feFlood flood-opacity="0" result="BackgroundImageFix"/>
<feColorMatrix in="SourceAlpha" type="matrix" values="0 0 0 0 0 0 0 0 0 0 0 0 0 0 0 0 0 0 127 0" result="hardAlpha"/>
<feOffset/>
<feGaussianBlur stdDeviation="3"/>
<feComposite in2="hardAlpha" operator="out"/>
<feColorMatrix type="matrix" values="0 0 0 0 0 0 0 0 0 0.831373 0 0 0 0 1 0 0 0 1 0"/>
<feBlend mode="normal" in2="BackgroundImageFix" result="effect1_dropShadow_1_7034"/>
<feBlend mode="normal" in="SourceGraphic" in2="effect1_dropShadow_1_7034" result="shape"/>
</filter>
<filter id="filter20_d_1_7034" x="684.688" y="807.766" width="14" height="14" filterUnits="userSpaceOnUse" color-interpolation-filters="sRGB">
<feFlood flood-opacity="0" result="BackgroundImageFix"/>
<feColorMatrix in="SourceAlpha" type="matrix" values="0 0 0 0 0 0 0 0 0 0 0 0 0 0 0 0 0 0 127 0" result="hardAlpha"/>
<feOffset/>
<feGaussianBlur stdDeviation="3"/>
<feComposite in2="hardAlpha" operator="out"/>
<feColorMatrix type="matrix" values="0 0 0 0 0.772549 0 0 0 0 0.627451 0 0 0 0 0.34902 0 0 0 1 0"/>
<feBlend mode="normal" in2="BackgroundImageFix" result="effect1_dropShadow_1_7034"/>
<feBlend mode="normal" in="SourceGraphic" in2="effect1_dropShadow_1_7034" result="shape"/>
</filter>
<filter id="filter21_d_1_7034" x="1417.17" y="812.943" width="15" height="15" filterUnits="userSpaceOnUse" color-interpolation-filters="sRGB">
<feFlood flood-opacity="0" result="BackgroundImageFix"/>
<feColorMatrix in="SourceAlpha" type="matrix" values="0 0 0 0 0 0 0 0 0 0 0 0 0 0 0 0 0 0 127 0" result="hardAlpha"/>
<feOffset/>
<feGaussianBlur stdDeviation="3"/>
<feComposite in2="hardAlpha" operator="out"/>
<feColorMatrix type="matrix" values="0 0 0 0 0 0 0 0 0 0.831373 0 0 0 0 1 0 0 0 1 0"/>
<feBlend mode="normal" in2="BackgroundImageFix" result="effect1_dropShadow_1_7034"/>
<feBlend mode="normal" in="SourceGraphic" in2="effect1_dropShadow_1_7034" result="shape"/>
</filter>
<filter id="filter22_d_1_7034" x="403.422" y="794.605" width="16" height="15" filterUnits="userSpaceOnUse" color-interpolation-filters="sRGB">
<feFlood flood-opacity="0" result="BackgroundImageFix"/>
<feColorMatrix in="SourceAlpha" type="matrix" values="0 0 0 0 0 0 0 0 0 0 0 0 0 0 0 0 0 0 127 0" result="hardAlpha"/>
<feOffset/>
<feGaussianBlur stdDeviation="3"/>
<feComposite in2="hardAlpha" operator="out"/>
<feColorMatrix type="matrix" values="0 0 0 0 0.772549 0 0 0 0 0.627451 0 0 0 0 0.34902 0 0 0 1 0"/>
<feBlend mode="normal" in2="BackgroundImageFix" result="effect1_dropShadow_1_7034"/>
<feBlend mode="normal" in="SourceGraphic" in2="effect1_dropShadow_1_7034" result="shape"/>
</filter>
<filter id="filter23_d_1_7034" x="249.906" y="452.895" width="15" height="14" filterUnits="userSpaceOnUse" color-interpolation-filters="sRGB">
<feFlood flood-opacity="0" result="BackgroundImageFix"/>
<feColorMatrix in="SourceAlpha" type="matrix" values="0 0 0 0 0 0 0 0 0 0 0 0 0 0 0 0 0 0 127 0" result="hardAlpha"/>
<feOffset/>
<feGaussianBlur stdDeviation="3"/>
<feComposite in2="hardAlpha" operator="out"/>
<feColorMatrix type="matrix" values="0 0 0 0 0 0 0 0 0 0.831373 0 0 0 0 1 0 0 0 1 0"/>
<feBlend mode="normal" in2="BackgroundImageFix" result="effect1_dropShadow_1_7034"/>
<feBlend mode="normal" in="SourceGraphic" in2="effect1_dropShadow_1_7034" result="shape"/>
</filter>
<filter id="filter24_d_1_7034" x="830.812" y="845.594" width="17" height="17" filterUnits="userSpaceOnUse" color-interpolation-filters="sRGB">
<feFlood flood-opacity="0" result="BackgroundImageFix"/>
<feColorMatrix in="SourceAlpha" type="matrix" values="0 0 0 0 0 0 0 0 0 0 0 0 0 0 0 0 0 0 127 0" result="hardAlpha"/>
<feOffset/>
<feGaussianBlur stdDeviation="3"/>
<feComposite in2="hardAlpha" operator="out"/>
<feColorMatrix type="matrix" values="0 0 0 0 0.772549 0 0 0 0 0.627451 0 0 0 0 0.34902 0 0 0 1 0"/>
<feBlend mode="normal" in2="BackgroundImageFix" result="effect1_dropShadow_1_7034"/>
<feBlend mode="normal" in="SourceGraphic" in2="effect1_dropShadow_1_7034" result="shape"/>
</filter>
<clipPath id="clip0_1_7034">
<rect width="1440" height="972" fill="white"/>
</clipPath>
</defs>
</svg>
