<svg width="12" height="7" viewBox="0 0 12 7" fill="none" xmlns="http://www.w3.org/2000/svg">
<path fill-rule="evenodd" clip-rule="evenodd" d="M1.00021 0C0.802461 4.24385e-05 0.609163 0.0587139 0.444754 0.168598C0.280343 0.278482 0.152204 0.434646 0.0765343 0.617346C0.000864029 0.800045 -0.01894 1.00108 0.0196285 1.19503C0.0581961 1.38898 0.153401 1.56715 0.293211 1.707L5.29321 6.707C5.48074 6.89447 5.73505 6.99979 6.00021 6.99979C6.26538 6.99979 6.51968 6.89447 6.70721 6.707L11.7072 1.707C11.847 1.56715 11.9422 1.38898 11.9808 1.19503C12.0194 1.00108 11.9996 0.800045 11.9239 0.617346C11.8482 0.434646 11.7201 0.278482 11.5557 0.168598C11.3913 0.0587139 11.198 4.24385e-05 11.0002 0L1.00021 0Z" fill="white"/>
</svg>
