<svg width="36" height="36" viewBox="0 0 36 36" fill="none" xmlns="http://www.w3.org/2000/svg">
<path d="M20.6042 35.6327C29.2239 34.3355 35.8333 26.8983 35.8333 17.9167C35.8333 8.02129 27.812 0 17.9167 0C8.02129 0 0 8.02129 0 17.9167C0 26.8983 6.60946 34.3373 15.2292 35.6327V23.2917H12.5417C11.8289 23.2917 11.1453 23.0085 10.6413 22.5045C10.1373 22.0005 9.85417 21.3169 9.85417 20.6042C9.85417 19.8914 10.1373 19.2078 10.6413 18.7038C11.1453 18.1998 11.8289 17.9167 12.5417 17.9167H15.2292V14.3333C15.2292 12.6702 15.8898 11.0752 17.0659 9.89918C18.2419 8.72318 19.8369 8.0625 21.5 8.0625H22.3958C23.1086 8.0625 23.7922 8.34565 24.2962 8.84965C24.8002 9.35365 25.0833 10.0372 25.0833 10.75C25.0833 11.4628 24.8002 12.1463 24.2962 12.6503C23.7922 13.1544 23.1086 13.4375 22.3958 13.4375H21.5C21.2624 13.4375 21.0346 13.5319 20.8666 13.6999C20.6985 13.8679 20.6042 14.0957 20.6042 14.3333V17.9167H23.2917C24.0044 17.9167 24.688 18.1998 25.192 18.7038C25.696 19.2078 25.9792 19.8914 25.9792 20.6042C25.9792 21.3169 25.696 22.0005 25.192 22.5045C24.688 23.0085 24.0044 23.2917 23.2917 23.2917H20.6042V35.6327Z" fill="#00B3F8"/>
</svg>
