<svg width="27" height="27" viewBox="0 0 27 27" fill="none" xmlns="http://www.w3.org/2000/svg">
<g clip-path="url(#clip0_146_2873)">
<rect width="27" height="27" rx="13.5" fill="white"/>
<path d="M15.525 27C22.0198 26.0171 27 20.3817 27 13.576C27 6.07799 20.9561 0 13.5 0C6.04395 0 0 6.07799 0 13.576C0 20.3817 4.98015 26.0185 11.475 27V17.6488H9.45C8.91294 17.6488 8.39787 17.4343 8.01811 17.0524C7.63835 16.6705 7.425 16.1525 7.425 15.6124C7.425 15.0723 7.63835 14.5544 8.01811 14.1725C8.39787 13.7906 8.91294 13.576 9.45 13.576H11.475V10.8608C11.475 9.60062 11.9728 8.39203 12.8589 7.50093C13.745 6.60983 14.9469 6.10921 16.2 6.10921H16.875C17.4121 6.10921 17.9271 6.32376 18.3069 6.70566C18.6867 7.08756 18.9 7.60553 18.9 8.14562C18.9 8.6857 18.6867 9.20367 18.3069 9.58557C17.9271 9.96747 17.4121 10.182 16.875 10.182H16.2C16.021 10.182 15.8493 10.2535 15.7227 10.3808C15.5961 10.5081 15.525 10.6808 15.525 10.8608V13.576H17.55C18.0871 13.576 18.6021 13.7906 18.9819 14.1725C19.3617 14.5544 19.575 15.0723 19.575 15.6124C19.575 16.1525 19.3617 16.6705 18.9819 17.0524C18.6021 17.4343 18.0871 17.6488 17.55 17.6488H15.525V27Z" fill="url(#paint0_linear_146_2873)"/>
</g>
<defs>
<linearGradient id="paint0_linear_146_2873" x1="27" y1="27" x2="-11.9672" y2="13.0368" gradientUnits="userSpaceOnUse">
<stop stop-color="#00B3F8"/>
<stop offset="0.25" stop-color="#0B9ADE"/>
<stop offset="0.5" stop-color="#0F82C3"/>
<stop offset="1" stop-color="#063F75"/>
</linearGradient>
<clipPath id="clip0_146_2873">
<rect width="27" height="27" rx="13.5" fill="white"/>
</clipPath>
</defs>
</svg>
