<svg width="36" height="36" viewBox="0 0 36 36" fill="none" xmlns="http://www.w3.org/2000/svg">
<path d="M19.7595 0C21.7751 0.005375 22.7982 0.016125 23.6815 0.0412083L24.0291 0.05375C24.4304 0.0680833 24.8263 0.0859999 25.3047 0.1075C27.2111 0.197083 28.5118 0.498084 29.6531 0.940625C30.8356 1.39571 31.8318 2.01204 32.8279 3.00642C33.7393 3.90177 34.4443 4.98526 34.8937 6.18125C35.3363 7.32254 35.6373 8.62329 35.7269 10.5314C35.7484 11.008 35.7663 11.404 35.7806 11.8071L35.7914 12.1547C35.8182 13.0362 35.829 14.0592 35.8326 16.0748L35.8344 17.4114V19.7585C35.8387 21.0654 35.825 22.3722 35.7931 23.6787L35.7824 24.0263C35.7681 24.4294 35.7501 24.8253 35.7286 25.3019C35.6391 27.21 35.3345 28.509 34.8937 29.6521C34.4443 30.8481 33.7393 31.9316 32.8279 32.8269C31.9326 33.7383 30.8491 34.4433 29.6531 34.8927C28.5118 35.3353 27.2111 35.6363 25.3047 35.7258L24.0291 35.7796L23.6815 35.7903C22.7982 35.8154 21.7751 35.828 19.7595 35.8315L18.4229 35.8333H16.0776C14.7702 35.8379 13.4627 35.8242 12.1557 35.7921L11.8081 35.7814C11.3828 35.7653 10.9575 35.7468 10.5324 35.7258C8.6261 35.6363 7.32535 35.3353 6.18227 34.8927C4.98692 34.4431 3.90406 33.7381 3.00923 32.8269C2.09717 31.9317 1.39155 30.8482 0.941644 29.6521C0.499103 28.5108 0.198102 27.21 0.108519 25.3019L0.054769 24.0263L0.0458109 23.6787C0.0127834 22.3722 -0.00214874 21.0654 0.00101909 19.7585V16.0748C-0.00394005 14.768 0.00920023 13.4611 0.0404359 12.1547L0.0529775 11.8071C0.0673108 11.404 0.0852275 11.008 0.106727 10.5314C0.196311 8.62329 0.497311 7.32433 0.939852 6.18125C1.3908 4.98477 2.09767 3.90124 3.01102 3.00642C3.90534 2.09544 4.98756 1.39047 6.18227 0.940625C7.32535 0.498084 8.62431 0.197083 10.5324 0.1075C11.009 0.0859999 11.4068 0.0680833 11.8081 0.05375L12.1557 0.0429999C13.4622 0.0111669 14.769 -0.0025705 16.0759 0.00179154L19.7595 0ZM17.9177 8.95833C15.5418 8.95833 13.2632 9.90216 11.5832 11.5822C9.90317 13.2622 8.95935 15.5408 8.95935 17.9167C8.95935 20.2926 9.90317 22.5712 11.5832 24.2512C13.2632 25.9312 15.5418 26.875 17.9177 26.875C20.2936 26.875 22.5722 25.9312 24.2522 24.2512C25.9322 22.5712 26.876 20.2926 26.876 17.9167C26.876 15.5408 25.9322 13.2622 24.2522 11.5822C22.5722 9.90216 20.2936 8.95833 17.9177 8.95833ZM17.9177 12.5417C18.6235 12.5415 19.3225 12.6805 19.9747 12.9505C20.6268 13.2205 21.2194 13.6163 21.7186 14.1153C22.2178 14.6144 22.6139 15.2068 22.8841 15.8589C23.1543 16.511 23.2935 17.2099 23.2936 17.9158C23.2937 18.6216 23.1548 19.3206 22.8848 19.9728C22.6148 20.6249 22.2189 21.2175 21.7199 21.7167C21.2209 22.2159 20.6284 22.6119 19.9763 22.8822C19.3243 23.1524 18.6253 23.2915 17.9195 23.2917C16.4939 23.2917 15.1268 22.7254 14.1188 21.7174C13.1108 20.7094 12.5445 19.3422 12.5445 17.9167C12.5445 16.4911 13.1108 15.124 14.1188 14.116C15.1268 13.108 16.4939 12.5417 17.9195 12.5417M27.3257 6.27083C26.7318 6.27083 26.1621 6.50679 25.7421 6.92679C25.3221 7.3468 25.0861 7.91644 25.0861 8.51042C25.0861 9.10439 25.3221 9.67404 25.7421 10.094C26.1621 10.514 26.7318 10.75 27.3257 10.75C27.9197 10.75 28.4893 10.514 28.9094 10.094C29.3294 9.67404 29.5653 9.10439 29.5653 8.51042C29.5653 7.91644 29.3294 7.3468 28.9094 6.92679C28.4893 6.50679 27.9197 6.27083 27.3257 6.27083Z" fill="url(#paint0_linear_130_1600)"/>
<defs>
<linearGradient id="paint0_linear_130_1600" x1="35.8351" y1="35.8342" x2="-15.8829" y2="17.3015" gradientUnits="userSpaceOnUse">
<stop stop-color="#00B3F8"/>
<stop offset="0.25" stop-color="#0B9ADE"/>
<stop offset="0.5" stop-color="#0F82C3"/>
<stop offset="1" stop-color="#063F75"/>
</linearGradient>
</defs>
</svg>
