<svg width="27" height="27" viewBox="0 0 27 27" fill="none" xmlns="http://www.w3.org/2000/svg">
<rect width="27" height="27" rx="13.5" fill="url(#paint0_linear_146_2903)"/>
<path d="M12.9884 24.9767C10.0741 24.9767 7.27914 23.819 5.21842 21.7583C3.1577 19.6976 2 16.9027 2 13.9884C2 11.0741 3.1577 8.27914 5.21842 6.21842C7.27914 4.1577 10.0741 3 12.9884 3C15.9027 3 18.6976 4.1577 20.7583 6.21842C22.819 8.27914 23.9767 11.0741 23.9767 13.9884C23.9767 16.9027 22.819 19.6976 20.7583 21.7583C18.6976 23.819 15.9027 24.9767 12.9884 24.9767ZM21.5044 16.186C21.8765 14.7446 21.8765 13.2322 21.5044 11.7907H17.3068C17.408 13.2541 17.408 14.7227 17.3068 16.186H21.5044ZM20.6033 18.3837H17.0651C16.8815 19.7083 16.5307 21.0043 16.0212 22.2406C17.9515 21.5286 19.5723 20.1643 20.6033 18.3837ZM10.8786 16.186H15.0981C15.2175 14.7234 15.2175 13.2534 15.0981 11.7907H10.8786C10.7593 13.2534 10.7593 14.7234 10.8786 16.186ZM11.1533 18.3837C11.6038 21.0209 12.395 22.7791 12.9884 22.7791C13.5817 22.7791 14.3729 21.0209 14.8234 18.3837H11.1533ZM4.47238 16.186H8.66994C8.56878 14.7227 8.56878 13.2541 8.66994 11.7907H4.47238C4.1002 13.2322 4.1002 14.7446 4.47238 16.186ZM5.37343 18.3837C6.40442 20.1643 8.02523 21.5286 9.95558 22.2406C9.49407 21.1858 9.14244 19.8671 8.91169 18.3837H5.37343ZM20.6033 9.59302C19.5723 7.81247 17.9515 6.44819 16.0212 5.7361C16.4827 6.79099 16.8343 8.10959 17.0651 9.59302H20.6033ZM11.1533 9.59302H14.8234C14.3729 6.95581 13.5817 5.19767 12.9884 5.19767C12.395 5.19767 11.6038 6.95581 11.1533 9.59302ZM5.37343 9.59302H8.91169C9.13145 8.10959 9.49407 6.79099 9.95558 5.7361C8.02523 6.44819 6.40442 7.81247 5.37343 9.59302Z" fill="white"/>
<defs>
<linearGradient id="paint0_linear_146_2903" x1="27" y1="27" x2="-11.9672" y2="13.0368" gradientUnits="userSpaceOnUse">
<stop stop-color="#00B3F8"/>
<stop offset="0.25" stop-color="#0B9ADE"/>
<stop offset="0.5" stop-color="#0F82C3"/>
<stop offset="1" stop-color="#063F75"/>
</linearGradient>
</defs>
</svg>
