<svg width="102" height="65" viewBox="0 0 102 65" fill="none" xmlns="http://www.w3.org/2000/svg">
<path d="M24.2689 44.5497C25.1159 44.5497 25.9192 44.5497 26.7225 44.5497C26.8098 44.5497 26.9321 44.6913 26.9801 44.7964C27.6155 46.1833 28.3664 47.5089 29.2241 48.7578C33.1533 54.4784 38.331 58.353 44.8884 60.0435C49.4683 61.2625 54.2901 61.04 58.7497 59.4039C61.9066 58.2664 64.8303 56.5163 67.3677 54.2453C70.237 51.6937 72.5809 48.5582 74.2569 45.0294C74.2939 44.9184 74.3659 44.8239 74.4612 44.7616C74.5565 44.6993 74.6692 44.6729 74.7807 44.6867C75.5011 44.7096 76.2214 44.6867 77.0073 44.6867C76.7715 45.235 76.5707 45.7422 76.3481 46.2265C74.6661 49.7504 72.361 52.9086 69.5549 55.5338C66.9566 58.0044 63.9446 59.9515 60.6706 61.2772C56.8009 62.8817 52.6298 63.5306 48.4814 63.1734C45.5103 62.898 42.5983 62.1396 39.8503 60.9254C39.7627 60.8781 39.6645 60.8565 39.5661 60.8629C39.4677 60.8694 39.3728 60.9036 39.2915 60.9619C37.423 62.1225 35.5515 63.2754 33.6771 64.4208C33.482 64.5484 33.2659 64.6367 33.0398 64.6812C32.8948 64.6962 32.7485 64.6767 32.6117 64.6244C32.4749 64.572 32.3511 64.488 32.2496 64.3787C32.1481 64.2694 32.0714 64.1375 32.0253 63.9929C31.9792 63.8483 31.9648 63.6947 31.9832 63.5435C32.1259 62.4499 32.2583 61.3549 32.3805 60.2583C32.5159 59.0932 32.625 57.9189 32.7734 56.7538C32.7927 56.6532 32.7825 56.5488 32.7444 56.4543C32.7062 56.3598 32.6418 56.2795 32.5595 56.2238C31.2716 55.1221 30.0835 53.8985 29.0102 52.5685C27.0984 50.2571 25.5336 47.655 24.3694 44.8512C24.3213 44.7827 24.3213 44.6913 24.2689 44.5497Z" fill="#00B3F8"/>
<path d="M2.55762 39.1343C2.21274 39.0447 1.87351 38.9322 1.54195 38.7975C1.07382 38.5937 0.675498 38.2435 0.400189 37.7935C0.124881 37.3436 -0.0143241 36.8153 0.0011656 36.2793C0.0011656 32.3263 0.0011656 28.3806 0.0011656 24.4349C-0.00842937 24.0541 0.055532 23.6752 0.189123 23.3215C0.322713 22.9677 0.523105 22.6467 0.778022 22.378C1.03294 22.1092 1.33701 21.8986 1.67154 21.7588C2.00608 21.6191 2.36403 21.5533 2.72344 21.5654H23.2718C23.6346 21.5464 23.9971 21.6083 24.336 21.747C24.6748 21.8857 24.9824 22.0982 25.2389 22.3707C25.4955 22.6431 25.6952 22.9696 25.8253 23.329C25.9554 23.6883 26.0128 24.0726 25.994 24.4569V36.1695C26.009 36.5566 25.9475 36.9427 25.8134 37.3032C25.6794 37.6636 25.4757 37.9904 25.2155 38.2626C24.9553 38.5348 24.6444 38.7465 24.3025 38.884C23.9607 39.0215 23.5955 39.0818 23.2303 39.0611H8.51346C8.13437 39.0512 7.76604 39.1952 7.48396 39.4637C6.12973 40.6642 4.76399 41.8526 3.38673 43.0287C3.22782 43.1532 2.92382 43.2923 2.81327 43.2191C2.73098 43.1405 2.66511 43.0445 2.61989 42.9373C2.57467 42.8302 2.55111 42.7142 2.55071 42.5968C2.5438 41.4329 2.55762 40.2909 2.55762 39.1343ZM20.7982 31.1477C20.9567 31.1662 21.1165 31.1662 21.275 31.1477C21.4628 31.1536 21.6451 31.0801 21.7818 30.9435C21.9185 30.8069 21.9984 30.6184 22.0039 30.4194C22.0094 30.2204 21.9401 30.0272 21.8111 29.8824C21.6822 29.7375 21.5043 29.6529 21.3164 29.6471C21.1756 29.6165 21.0317 29.6042 20.8881 29.6105H5.18316C5.02454 29.5959 4.86503 29.5959 4.70641 29.6105C4.52048 29.6377 4.34946 29.7332 4.2232 29.8804C4.09693 30.0276 4.02342 30.217 4.01548 30.4157C4.01536 30.515 4.03431 30.6133 4.07117 30.7046C4.10803 30.7959 4.16204 30.8782 4.2299 30.9467C4.29776 31.0152 4.37808 31.0683 4.46593 31.1029C4.55379 31.1374 4.64735 31.1527 4.74095 31.1477C4.89987 31.1477 5.05878 31.1477 5.2177 31.1477H20.7982ZM12.9216 26.0967H8.72073C7.42869 26.0967 6.13664 26.0967 4.8515 26.0967C4.75129 26.0823 4.64934 26.0903 4.55222 26.1201C4.45509 26.15 4.36493 26.201 4.28751 26.2699C4.21009 26.3388 4.14712 26.4242 4.10265 26.5204C4.05818 26.6166 4.0332 26.7216 4.02929 26.8287C4.04173 27.0416 4.13135 27.2413 4.27941 27.3859C4.42747 27.5305 4.62255 27.6089 4.82388 27.6047H20.8742C20.9685 27.6119 21.0632 27.6119 21.1575 27.6047C21.3408 27.6047 21.5165 27.5275 21.6461 27.3903C21.7757 27.253 21.8484 27.0668 21.8484 26.8726C21.8534 26.7703 21.838 26.668 21.8033 26.5724C21.7686 26.4767 21.7154 26.3899 21.647 26.3174C21.5786 26.245 21.4966 26.1885 21.4064 26.1518C21.3161 26.115 21.2196 26.0987 21.123 26.104H12.9423L12.9216 26.0967ZM10.5517 34.7201H15.4228C15.7406 34.7201 16.0584 34.7201 16.3763 34.7201C16.4607 34.7201 16.5442 34.7025 16.6222 34.6683C16.7001 34.6341 16.771 34.5839 16.8306 34.5207C16.8903 34.4575 16.9376 34.3824 16.9699 34.2998C17.0022 34.2172 17.0188 34.1287 17.0188 34.0393C17.041 33.8527 16.9945 33.6642 16.8891 33.5129C16.7836 33.3616 16.6272 33.2591 16.4523 33.2267C16.2961 33.2083 16.1386 33.2083 15.9824 33.2267H8.33381C7.23523 33.2267 6.13665 33.2267 5.03807 33.2267C4.71797 33.2481 4.4182 33.4003 4.20203 33.6513C3.84965 34.1564 4.28494 34.7567 4.96206 34.764L10.5517 34.7201Z" fill="#00B3F8"/>
<path d="M24.2689 16.253C25.3794 13.9284 26.9795 12.0361 28.6653 10.2229C33.1834 5.34001 39.0209 2.01339 45.3977 0.687535C47.8679 0.137073 50.395 -0.0843178 52.9185 0.0286525C59.4425 0.277004 65.7238 2.67571 70.8623 6.88103C72.0636 7.85091 73.1437 8.98946 74.2542 10.0806C74.3865 10.2093 74.4921 10.3651 74.5643 10.5383C74.6365 10.7116 74.6737 10.8984 74.6737 11.0873C74.6737 11.2762 74.6365 11.4631 74.5643 11.6363C74.4921 11.8095 74.3865 11.9654 74.2542 12.0941C74.1277 12.2342 73.9752 12.3458 73.8059 12.4221C73.6366 12.4983 73.4542 12.5377 73.2699 12.5377C73.0855 12.5377 72.9032 12.4983 72.7339 12.4221C72.5646 12.3458 72.4121 12.2342 72.2856 12.0941C70.8735 10.5596 69.3159 9.17852 67.6369 7.97214C64.0366 5.41876 59.9234 3.76159 55.6138 3.12804C53.5045 2.80966 51.3671 2.74598 49.2439 2.93827C46.9174 3.16422 44.6239 3.67189 42.4096 4.45106C36.1861 6.55949 31.3051 10.5549 27.4539 16.0474C27.3713 16.1702 27.2466 16.2551 27.1056 16.2846C26.187 16.2846 25.2684 16.2846 24.3497 16.2846C24.3222 16.2757 24.2952 16.2652 24.2689 16.253Z" fill="#00B3F8"/>
<path d="M98.58 15.7814C98.2179 15.7761 97.8641 15.6662 97.5572 15.4636C97.2502 15.2609 97.0018 14.9734 96.8391 14.6322C96.7968 14.5173 96.7191 14.4207 96.6186 14.3578C96.5181 14.2949 96.4005 14.2694 96.2846 14.2854C95.7043 14.2854 95.124 14.2854 94.5501 14.2854C94.3816 14.273 94.2128 14.3036 94.0579 14.3746C93.903 14.4457 93.7666 14.555 93.6603 14.6934C91.481 17.1618 89.2887 19.6099 87.1094 22.0715C87.0091 22.194 86.8841 22.2912 86.7435 22.3559C86.6028 22.4206 86.4503 22.4512 86.2969 22.4455C84.1885 22.4455 82.0801 22.4455 79.9652 22.4455C79.8211 22.438 79.6772 22.4661 79.5452 22.5275C79.4131 22.5888 79.2964 22.6819 79.2044 22.7991C77.9148 24.2407 76.6639 25.6619 75.3873 27.0831C75.0133 27.498 74.6844 27.5524 74.3943 27.2531C74.1041 26.9539 74.1557 26.5731 74.5168 26.1923C75.9289 24.6215 77.341 23.0507 78.7337 21.4663C78.8409 21.3387 78.9748 21.2392 79.1247 21.1755C79.2746 21.1118 79.4365 21.0856 79.5977 21.0991C81.6932 21.0991 83.7887 21.0991 85.8843 21.0991C86.1407 21.0863 86.3838 20.9751 86.5677 20.7863C88.7729 18.3292 90.9694 15.8608 93.1574 13.381C93.2747 13.2329 93.4233 13.1158 93.5913 13.039C93.7592 12.9623 93.9418 12.928 94.1246 12.939C94.8209 12.939 95.5237 12.939 96.2201 12.939C96.3431 12.9579 96.4684 12.9299 96.5736 12.8601C96.6787 12.7903 96.7569 12.6833 96.794 12.5582C97.0007 12.076 97.3661 11.6891 97.8225 11.4691C98.2788 11.2491 98.7953 11.2108 99.2763 11.3614C99.7891 11.5147 100.228 11.8672 100.504 12.3479C100.781 12.8285 100.874 13.4018 100.766 13.9522C100.667 14.4811 100.392 14.9555 99.9918 15.2907C99.5913 15.6258 99.0909 15.7997 98.58 15.7814ZM98.6702 12.3814C98.3783 12.3832 98.0989 12.5063 97.8925 12.7239C97.6861 12.9416 97.5694 13.2363 97.5677 13.5442C97.5677 13.8544 97.6845 14.1519 97.8925 14.3712C98.1005 14.5906 98.3826 14.7138 98.6767 14.7138C98.9708 14.7138 99.2529 14.5906 99.4609 14.3712C99.6689 14.1519 99.7857 13.8544 99.7857 13.5442C99.7901 13.3881 99.7644 13.2327 99.71 13.0875C99.6556 12.9423 99.5737 12.8103 99.4693 12.6996C99.3649 12.5889 99.2402 12.5017 99.1028 12.4435C98.9654 12.3853 98.8183 12.3572 98.6702 12.361V12.3814Z" fill="#00B3F8"/>
<path d="M97.7625 11.3309C98.25 11.096 98.8014 11.0557 99.3154 11.216C99.8635 11.3799 100.333 11.7562 100.628 12.2697C100.923 12.7826 101.022 13.3938 100.907 13.981C100.801 14.545 100.509 15.0516 100.082 15.4092C99.6557 15.7661 99.1224 15.9521 98.5781 15.9334L98.5774 15.9327L98.5753 15.9334C98.1875 15.9272 97.8086 15.8092 97.48 15.5923C97.1506 15.3749 96.8841 15.0662 96.7095 14.7003L96.7039 14.6869C96.6732 14.6037 96.6169 14.5336 96.5443 14.4882C96.4717 14.4429 96.387 14.4248 96.3035 14.4363L96.2943 14.4371H94.5401C94.395 14.4264 94.2492 14.4522 94.1157 14.5134C93.9823 14.5746 93.8649 14.6692 93.7732 14.7885L93.7669 14.7967L93.6603 14.6934C93.7401 14.5896 93.8368 14.5021 93.9455 14.4348L94.0579 14.3746C94.2128 14.3036 94.3816 14.273 94.5501 14.2854H96.2846C96.4005 14.2694 96.5181 14.2949 96.6186 14.3578C96.7191 14.4207 96.7968 14.5173 96.8391 14.6322C97.0018 14.9734 97.2502 15.2609 97.5572 15.4636C97.8641 15.6662 98.2179 15.7761 98.58 15.7814C99.027 15.7974 99.4662 15.666 99.8372 15.4084L99.9918 15.2907C100.392 14.9555 100.667 14.4811 100.766 13.9522C100.874 13.4018 100.781 12.8285 100.504 12.3479C100.262 11.9275 99.8962 11.6048 99.4651 11.4281L99.2763 11.3614C98.7953 11.2108 98.2788 11.2491 97.8225 11.4691L97.6558 11.5593C97.2774 11.7873 96.9749 12.1364 96.794 12.5582L96.759 12.6486C96.7164 12.7347 96.6524 12.8078 96.5736 12.8601C96.4684 12.9299 96.3431 12.9579 96.2201 12.939L93.9879 12.9392C93.8515 12.9478 93.7173 12.9814 93.5913 13.039L93.4689 13.1039C93.3508 13.1761 93.2454 13.27 93.1574 13.381C90.9694 15.8608 88.7729 18.3292 86.5677 20.7863C86.3838 20.9751 86.1407 21.0863 85.8843 21.0991H79.5977L79.4765 21.0964C79.3561 21.1011 79.237 21.1277 79.1247 21.1755L79.0154 21.2299C78.9095 21.2907 78.8141 21.3706 78.7337 21.4663C77.341 23.0507 75.9289 24.6215 74.5168 26.1923C74.1557 26.5731 74.1041 26.9539 74.3943 27.2531C74.6482 27.515 74.9318 27.5062 75.2493 27.2219L75.3873 27.0831C76.0256 26.3725 76.6574 25.6617 77.2909 24.9485L79.2044 22.7991C79.2733 22.7113 79.3563 22.6369 79.449 22.5794L79.5452 22.5275C79.6442 22.4815 79.7498 22.4543 79.8572 22.4467L79.9652 22.4455H86.2969C86.4119 22.4498 86.5264 22.4334 86.6358 22.3977L86.7435 22.3559C86.8841 22.2912 87.0091 22.194 87.1094 22.0715C89.2887 19.6099 91.481 17.1618 93.6603 14.6934L93.7669 14.7967C91.5893 17.2631 89.3952 19.7114 87.2184 22.1701C87.1041 22.3097 86.9621 22.421 86.8018 22.4949C86.6428 22.568 86.4702 22.6022 86.2969 22.5964L79.9581 22.5972C79.8366 22.5909 79.7151 22.6144 79.6036 22.6661C79.4922 22.7179 79.394 22.797 79.3162 22.896L79.3099 22.9034C78.0222 24.3429 76.7682 25.7666 75.4922 27.187C75.296 27.4047 75.0928 27.5502 74.8821 27.586C74.6613 27.6233 74.4628 27.5362 74.2931 27.3613C74.1205 27.1832 74.0397 26.9676 74.0679 26.734C74.0952 26.5082 74.2217 26.2886 74.4146 26.0852C75.8258 24.5153 77.2365 22.946 78.6277 21.3633C78.7494 21.2195 78.9008 21.107 79.0705 21.0349C79.2412 20.9623 79.4258 20.932 79.6093 20.9474H85.8774C86.0983 20.9364 86.3077 20.8403 86.4663 20.6775C88.6698 18.2222 90.8652 15.756 93.0515 13.2781C93.1825 13.1147 93.3475 12.9851 93.5338 12.8999C93.72 12.8149 93.9223 12.7764 94.1249 12.7872H96.2307L96.2413 12.7887C96.33 12.8023 96.4203 12.782 96.4963 12.7316C96.5723 12.6812 96.629 12.6036 96.6559 12.5129L96.6587 12.504L96.6622 12.4958C96.8833 11.9803 97.2742 11.5663 97.7625 11.3309ZM99.6409 13.5443V13.5399C99.6447 13.4043 99.6225 13.2692 99.5752 13.1432C99.528 13.0171 99.4568 12.9026 99.3662 12.8065C99.2757 12.7105 99.1675 12.6345 99.0484 12.5841C98.9733 12.5523 98.8946 12.5324 98.8147 12.5218V12.5322L98.6713 12.5329C98.4177 12.5345 98.1743 12.6416 97.9948 12.831C97.8153 13.0203 97.7138 13.277 97.7123 13.545C97.7125 13.8149 97.814 14.0737 97.9948 14.2643C98.1757 14.4551 98.4214 14.5616 98.677 14.5616L98.6767 14.7138L98.5668 14.7084C98.313 14.6818 98.0744 14.5631 97.8925 14.3712C97.7106 14.1794 97.5984 13.9276 97.5732 13.66L97.5677 13.5442C97.5692 13.2747 97.6588 13.0153 97.8197 12.8087L97.8925 12.7239C98.0989 12.5063 98.3783 12.3832 98.6702 12.3814V12.361C98.8183 12.3572 98.9654 12.3853 99.1028 12.4435C99.2402 12.5017 99.3649 12.5889 99.4693 12.6996C99.5737 12.8103 99.6556 12.9423 99.71 13.0875C99.7644 13.2327 99.7901 13.3881 99.7857 13.5442L99.78 13.66C99.7548 13.9276 99.6428 14.1794 99.4609 14.3712C99.2529 14.5906 98.9708 14.7138 98.6767 14.7138L98.677 14.5616C98.9324 14.5616 99.1776 14.455 99.3584 14.2643C99.5393 14.0735 99.6409 13.8144 99.6409 13.5443Z" fill="#00B3F8"/>
<path d="M84.8037 27.2587C83.7606 27.2587 82.7111 27.2587 81.6616 27.2587C81.438 27.2771 81.2276 27.3749 81.0664 27.5355C79.6073 29.1042 78.1739 30.6926 76.7212 32.2744C76.3756 32.6501 76.0813 32.6764 75.8061 32.4194C75.7396 32.3543 75.6875 32.2752 75.6533 32.1875C75.6191 32.0999 75.6036 32.0056 75.6078 31.9112C75.6121 31.8169 75.636 31.7245 75.6779 31.6405C75.7198 31.5564 75.7788 31.4827 75.8509 31.4242C77.4187 29.7303 78.9482 28.0035 80.5161 26.3096C80.72 26.1249 80.9805 26.02 81.252 26.013C83.255 26.013 85.2644 26.013 87.2674 26.013C87.4262 26.0219 87.5849 25.9932 87.7313 25.9293C87.8777 25.8653 88.008 25.7677 88.1122 25.6439C89.3921 24.1873 90.7359 22.7637 92.035 21.3071C92.1667 21.1471 92.3335 21.0219 92.5215 20.9416C92.7096 20.8614 92.9136 20.8285 93.1165 20.8457C94.3964 20.8457 95.6763 20.8457 96.9178 20.8457C97.0593 20.8691 97.2044 20.8428 97.3297 20.7711C97.455 20.6994 97.5534 20.5864 97.6089 20.4503C97.8221 20.0455 98.1591 19.7246 98.5677 19.5375C98.9762 19.3504 99.4333 19.3075 99.8679 19.4155C100.3 19.4971 100.694 19.7237 100.988 20.0599C101.282 20.3961 101.46 20.823 101.493 21.2742C101.549 21.729 101.463 22.1903 101.248 22.5918C101.033 22.9932 100.7 23.3142 100.297 23.5085C99.8098 23.7449 99.2522 23.7744 98.7444 23.5906C98.2366 23.4068 97.8195 23.0245 97.5833 22.5264C97.5485 22.4147 97.4772 22.3188 97.3816 22.2551C97.2859 22.1915 97.1717 22.1639 97.0585 22.1771C95.7787 22.1771 94.4988 22.1771 93.2509 22.1771C93.0528 22.1863 92.8644 22.2682 92.7197 22.4078C91.3567 23.8973 90.0064 25.4067 88.6369 26.8896C88.4412 27.083 88.1846 27.1975 87.9138 27.2126C86.8835 27.2455 85.8532 27.2126 84.8165 27.2126L84.8037 27.2587ZM98.364 21.4916C98.3536 21.6354 98.3714 21.7799 98.4163 21.9165C98.4613 22.053 98.5324 22.1789 98.6256 22.2865C98.7188 22.3941 98.832 22.4813 98.9586 22.5429C99.0851 22.6045 99.2225 22.6393 99.3623 22.6451C99.5091 22.6532 99.6559 22.6302 99.7936 22.5773C99.9313 22.5244 100.057 22.4428 100.163 22.3377C100.268 22.2325 100.352 22.106 100.408 21.9661C100.464 21.8262 100.491 21.6759 100.489 21.5246C100.493 21.2344 100.385 20.9544 100.189 20.7461C99.9926 20.5379 99.7241 20.4184 99.4423 20.414C99.1606 20.4097 98.8887 20.5207 98.6865 20.7228C98.4843 20.9249 98.3683 21.2015 98.364 21.4916Z" fill="#00B3F8"/>
<path d="M98.5101 19.398C98.9473 19.1978 99.4363 19.152 99.9013 19.2675L99.9005 19.2682C100.361 19.3568 100.78 19.5982 101.094 19.9571C101.408 20.3162 101.599 20.7722 101.637 21.2547L101.652 21.4378C101.671 21.8648 101.575 22.2904 101.374 22.6665C101.143 23.0961 100.787 23.4393 100.357 23.6468L100.356 23.646C99.8355 23.8984 99.2399 23.9307 98.6972 23.7342C98.1541 23.5377 97.707 23.1281 97.4536 22.5938L97.4494 22.5842L97.4459 22.5738C97.4216 22.496 97.3716 22.4283 97.3039 22.3832C97.2362 22.3383 97.155 22.319 97.0744 22.3284L97.0666 22.3291H93.2575L93.136 22.3454C93.0172 22.3732 92.9071 22.4333 92.8175 22.5197C91.4587 24.0047 90.1078 25.515 88.7407 26.9953L88.7358 27.0005C88.515 27.2185 88.226 27.3469 87.9216 27.3639L87.918 27.3646C86.9211 27.3965 85.919 27.3674 84.9238 27.3653L84.9118 27.4106H81.6669C81.4783 27.4275 81.3017 27.5107 81.1662 27.6456C80.4381 28.4284 79.7169 29.2159 78.9961 30.0051L76.8253 32.3801C76.6421 32.5792 76.454 32.7065 76.2568 32.7345C76.0526 32.7634 75.8696 32.6817 75.7102 32.5328L75.7074 32.5306C75.6258 32.4506 75.5617 32.3532 75.5196 32.2451C75.4774 32.137 75.4578 32.0206 75.4631 31.904C75.4683 31.7875 75.4983 31.6738 75.5499 31.5703C75.5986 31.4729 75.6655 31.3864 75.7469 31.3168C76.53 30.4707 77.3046 29.6174 78.0788 28.7623C78.853 27.9072 79.6281 27.051 80.4127 26.2034L80.4169 26.199L80.4219 26.1945C80.6514 25.9868 80.9443 25.8687 81.2488 25.8608H87.2754C87.4125 25.8685 87.5495 25.8441 87.6758 25.7889C87.802 25.7338 87.914 25.6497 88.0035 25.5435L88.0056 25.5413C88.9638 24.4507 89.9653 23.3713 90.9511 22.2883L91.9291 21.2035C92.0753 21.0273 92.2598 20.8894 92.4673 20.8009C92.6763 20.7117 92.9029 20.675 93.1282 20.6941H96.9289L96.9402 20.6956C97.0505 20.7138 97.1636 20.6934 97.2608 20.6378C97.3579 20.5822 97.4337 20.4944 97.4762 20.3901L97.479 20.3834L97.4826 20.3768C97.7114 19.9425 98.0728 19.5983 98.5101 19.398ZM99.8679 19.4155C99.4333 19.3075 98.9762 19.3504 98.5677 19.5375L98.4176 19.6138C98.0766 19.8061 97.7954 20.0963 97.6089 20.4503L97.5595 20.5481C97.5026 20.6405 97.4236 20.7173 97.3297 20.7711L97.2326 20.8165C97.1322 20.8531 97.024 20.8633 96.9178 20.8457H93.1165C92.9136 20.8285 92.7096 20.8614 92.5215 20.9416L92.3846 21.01C92.2522 21.0866 92.1338 21.1871 92.035 21.3071L91.0542 22.3944C90.0682 23.4775 89.0721 24.5515 88.1122 25.6439L88.0296 25.7318C87.9422 25.8145 87.8411 25.8813 87.7313 25.9293L87.6193 25.9706C87.5434 25.9937 87.4652 26.008 87.3863 26.0129L81.252 26.013C80.9805 26.02 80.72 26.1249 80.5161 26.3096C78.9482 28.0035 77.4187 29.7303 75.8509 31.4242C75.7788 31.4827 75.7198 31.5564 75.6779 31.6405L75.6502 31.7053C75.6256 31.7711 75.611 31.8405 75.6078 31.9112L75.6085 31.9819C75.6127 32.0522 75.6277 32.1219 75.6533 32.1875C75.6875 32.2752 75.7396 32.3543 75.8061 32.4194C76.0468 32.6442 76.3022 32.6522 76.5937 32.3993L76.7212 32.2744C78.1739 30.6926 79.6073 29.1042 81.0664 27.5355C81.2276 27.3749 81.438 27.2771 81.6616 27.2587H84.8037L84.8165 27.2126C85.5941 27.2126 86.3681 27.2313 87.1412 27.2267L87.9138 27.2126C88.1846 27.1975 88.4412 27.083 88.6369 26.8896C90.0064 25.4067 91.3567 23.8973 92.7197 22.4078C92.8644 22.2682 93.0528 22.1863 93.2509 22.1771H97.0585L97.1436 22.1749C97.2278 22.1801 97.3099 22.2075 97.3816 22.2551C97.4772 22.3188 97.5485 22.4147 97.5833 22.5264C97.8195 23.0245 98.2366 23.4068 98.7444 23.5906C99.2522 23.7744 99.8098 23.7449 100.297 23.5085C100.649 23.3384 100.948 23.0715 101.162 22.7384L101.248 22.5918C101.463 22.1903 101.549 21.729 101.493 21.2742C101.464 20.8795 101.324 20.503 101.093 20.1899L100.988 20.0599C100.694 19.7237 100.3 19.4971 99.8679 19.4155ZM99.4423 20.414C99.7241 20.4184 99.9926 20.5379 100.189 20.7461C100.385 20.9544 100.493 21.2344 100.489 21.5246C100.491 21.6759 100.464 21.8262 100.408 21.9661C100.352 22.106 100.268 22.2325 100.163 22.3377L100.08 22.4122C99.9936 22.4819 99.8968 22.5376 99.7936 22.5773L99.6887 22.6116C99.5825 22.64 99.4723 22.6512 99.3623 22.6451C99.2225 22.6393 99.0851 22.6045 98.9586 22.5429C98.8637 22.4968 98.7763 22.436 98.6993 22.3632L98.6256 22.2865C98.5324 22.1789 98.4613 22.053 98.4163 21.9165C98.3714 21.7799 98.3536 21.6354 98.364 21.4916L98.5079 21.5031C98.499 21.6261 98.5146 21.7502 98.5531 21.8672C98.5916 21.984 98.6525 22.0921 98.7325 22.1845C98.8126 22.277 98.9101 22.3524 99.0192 22.4055C99.1011 22.4453 99.1883 22.4718 99.2777 22.4848L99.3681 22.493L99.3702 22.4937C99.4974 22.5008 99.6245 22.4802 99.7438 22.4344C99.863 22.3886 99.9717 22.3183 100.063 22.2275C100.154 22.1367 100.227 22.0276 100.275 21.9072C100.323 21.7869 100.346 21.6576 100.344 21.5276V21.5224C100.348 21.2735 100.255 21.0324 100.086 20.8528C99.917 20.6731 99.6844 20.5696 99.4401 20.5658C99.1959 20.5621 98.9607 20.6584 98.7862 20.8328C98.6118 21.0071 98.5123 21.2452 98.5087 21.4942L98.5079 21.5031L98.364 21.4916C98.3677 21.2377 98.4568 20.9939 98.6146 20.8016L98.6865 20.7228C98.8887 20.5207 99.1606 20.4097 99.4423 20.414Z" fill="#00B3F8"/>
<path d="M80.6073 16.0176C81.4921 16.0176 82.3833 16.0176 83.2681 16.0176C83.479 16.0099 83.6796 15.9174 83.8306 15.7584C86.2133 13.0848 88.5771 10.3906 90.9535 7.71013C91.061 7.60966 91.1361 7.47486 91.168 7.32526C91.1998 7.17566 91.1866 7.01902 91.1305 6.87801C91.0394 6.57679 91.0082 6.25826 91.0387 5.94313C91.0693 5.62801 91.1609 5.32335 91.3077 5.04897C91.4546 4.77459 91.6533 4.53664 91.8909 4.35059C92.1286 4.16454 92.3998 4.03454 92.6871 3.96907C92.9744 3.90361 93.2712 3.90414 93.5582 3.97061C93.8453 4.03709 94.1162 4.16801 94.3533 4.3549C94.5904 4.54178 94.7883 4.78043 94.9343 5.05532C95.0803 5.33021 95.1711 5.63519 95.2007 5.95042C95.2266 6.26397 95.1934 6.57992 95.1031 6.87926C95.0129 7.1786 94.8674 7.45512 94.6755 7.69218C94.4836 7.92925 94.2492 8.12195 93.9864 8.25866C93.7237 8.39537 93.438 8.47328 93.1466 8.48769C92.9315 8.50506 92.7155 8.47009 92.5146 8.38536C92.3949 8.31741 92.2561 8.30004 92.1252 8.33661C91.9943 8.37319 91.8808 8.46109 91.8067 8.58316C89.3503 11.3978 86.8812 14.2033 84.3994 16.9998C84.1924 17.2022 83.9264 17.3204 83.6473 17.334C81.8966 17.334 80.1459 17.334 78.4015 17.334C78.2657 17.3289 78.1307 17.3576 78.0068 17.418C77.883 17.4783 77.7737 17.5686 77.6874 17.6819C76.4233 19.1346 75.1593 20.567 73.8952 22.0061C73.5982 22.3403 73.2632 22.3881 73.0104 22.1425C72.9462 22.0787 72.895 22.0011 72.86 21.9149C72.825 21.8286 72.8069 21.7354 72.8069 21.6412C72.8069 21.547 72.825 21.4539 72.86 21.3676C72.895 21.2813 72.9462 21.2038 73.0104 21.1399C74.4072 19.5302 75.8039 17.9274 77.2197 16.3655C77.4134 16.1837 77.6584 16.0779 77.9149 16.0654C78.7997 16.0654 79.6909 16.0654 80.582 16.0654L80.6073 16.0176ZM93.0897 7.3691C93.2346 7.37092 93.3784 7.34148 93.5126 7.28249C93.6468 7.22349 93.7687 7.13614 93.8711 7.02557C93.9736 6.915 94.0545 6.78343 94.1092 6.63862C94.1639 6.49381 94.1911 6.33868 94.1895 6.18232C94.1862 5.8746 94.0724 5.58025 93.872 5.36138C93.6715 5.14251 93.4001 5.01623 93.115 5.00917C92.8306 5.01386 92.5583 5.13468 92.3531 5.34729C92.1479 5.5599 92.0249 5.84851 92.009 6.15503C92.0039 6.47045 92.1147 6.77522 92.3172 7.00271C92.5198 7.23021 92.7975 7.36193 93.0897 7.3691Z" fill="#00B3F8"/>
<path d="M92.6563 3.821C92.964 3.7509 93.2818 3.75133 93.5892 3.82249C93.8966 3.89367 94.1867 4.0335 94.4402 4.23327C94.6936 4.43306 94.9052 4.68821 95.0609 4.98144C95.1972 5.23806 95.2882 5.51916 95.33 5.81043L95.3448 5.93574V5.93722C95.3723 6.27055 95.337 6.60652 95.241 6.92489C95.145 7.24329 94.99 7.53763 94.7855 7.79022C94.581 8.04283 94.3309 8.24856 94.0504 8.39453C93.7709 8.53988 93.4672 8.62262 93.157 8.63848C92.9199 8.65754 92.682 8.61978 92.4607 8.52652L92.453 8.52281L92.4459 8.5191C92.3586 8.46953 92.2577 8.45703 92.1627 8.48351C92.0677 8.51007 91.9839 8.57403 91.929 8.66444L91.9219 8.6763L91.9134 8.68594C89.4568 11.5008 86.9875 14.3067 84.5056 17.1034L84.502 17.1071L84.4978 17.1108C84.266 17.3374 83.9677 17.4707 83.6539 17.486H78.3964C78.2835 17.4817 78.1712 17.5055 78.068 17.5557C77.9647 17.606 77.8728 17.6815 77.8004 17.7766L77.7947 17.7848L77.794 17.7841C76.5297 19.2372 75.2655 20.6704 74.0018 22.1092L74.0011 22.1099C73.8376 22.2938 73.6512 22.4127 73.4566 22.4421C73.2575 22.4721 73.0678 22.4049 72.9121 22.2538L72.9107 22.253C72.8321 22.1747 72.7698 22.0794 72.7271 21.9742C72.6845 21.8691 72.6622 21.7558 72.6622 21.6413C72.6622 21.5268 72.6845 21.4135 72.7271 21.3084C72.7698 21.2032 72.8321 21.1079 72.9107 21.0296C74.3051 19.4227 75.7002 17.8215 77.1146 16.261L77.1231 16.2521C77.3413 16.0473 77.6183 15.9282 77.9084 15.914L77.9148 15.9133H80.4973L80.522 15.8658H83.2627C83.4363 15.8594 83.6026 15.7835 83.7281 15.6515C86.1098 12.9789 88.4715 10.2867 90.8478 7.60633L90.852 7.60113L90.8577 7.59669C90.9421 7.51772 91.0012 7.41084 91.0265 7.29193C91.0517 7.17298 91.0414 7.04864 90.9968 6.93676L90.9947 6.93008L90.9926 6.92415C90.8955 6.60309 90.8626 6.26331 90.8951 5.92759C90.9277 5.59195 91.0253 5.26737 91.1818 4.97477C91.3385 4.68208 91.5506 4.42772 91.8047 4.22882C92.0587 4.03001 92.3488 3.89111 92.6563 3.821ZM93.115 5.00917C93.4001 5.01623 93.6715 5.14251 93.872 5.36138C94.0724 5.58025 94.1862 5.8746 94.1895 6.18232C94.1911 6.33868 94.1639 6.49381 94.1092 6.63862L94.0631 6.74471C94.0125 6.84792 93.9479 6.94269 93.8711 7.02557L93.7905 7.10433C93.7068 7.1782 93.6131 7.23829 93.5126 7.28249C93.3784 7.34148 93.2346 7.37092 93.0897 7.3691L92.9812 7.36089C92.7653 7.33255 92.5618 7.23598 92.3965 7.08357L92.3172 7.00271C92.1147 6.77522 92.0039 6.47045 92.009 6.15503C92.0229 5.88693 92.1188 5.63261 92.2799 5.43078L92.3531 5.34729C92.5583 5.13468 92.8306 5.01386 93.115 5.00917ZM93.114 5.16088C92.8685 5.16583 92.6327 5.27053 92.4544 5.45525C92.2752 5.64092 92.1676 5.89403 92.1535 6.16338C92.1505 6.43783 92.2474 6.70204 92.4226 6.89894C92.5987 7.09682 92.8397 7.20981 93.0921 7.2163C93.2169 7.21779 93.3406 7.19304 93.4565 7.14215C93.5724 7.09117 93.6782 7.01569 93.7672 6.9197C93.8562 6.82363 93.9271 6.70871 93.9748 6.58232C94.0224 6.45605 94.0462 6.32069 94.0447 6.18414C94.0419 5.91452 93.9424 5.65696 93.7679 5.46638C93.594 5.27655 93.3594 5.16761 93.114 5.16088ZM72.8105 21.7117C72.8172 21.7817 72.8338 21.8502 72.86 21.9149C72.895 22.0011 72.9462 22.0787 73.0104 22.1425C73.2632 22.3881 73.5982 22.3403 73.8952 22.0061C74.5272 21.2866 75.1592 20.5687 75.7913 19.8491L77.6874 17.6819C77.7737 17.5686 77.883 17.4783 78.0068 17.418C78.1307 17.3576 78.2657 17.3289 78.4015 17.334H83.6473L83.7514 17.3243C83.9577 17.2947 84.1533 17.2073 84.3191 17.0715L84.3994 16.9998C86.2607 14.9025 88.1152 12.8 89.9622 10.6924L91.8067 8.58316C91.8623 8.49168 91.9401 8.41886 92.0307 8.37303L92.1252 8.33661C92.2561 8.30004 92.3949 8.31741 92.5146 8.38536C92.7155 8.47009 92.9315 8.50506 93.1466 8.48769C93.438 8.47328 93.7237 8.39537 93.9864 8.25866C94.2164 8.13902 94.4248 7.97671 94.6019 7.77909L94.6755 7.69218C94.8435 7.48471 94.9756 7.24692 95.0666 6.99014L95.1031 6.87926C95.1821 6.61733 95.2176 6.34234 95.2078 6.06773L95.2007 5.95042C95.1748 5.67474 95.1022 5.40687 94.9868 5.16014L94.9343 5.05532C94.8066 4.81478 94.6389 4.60218 94.4402 4.42755L94.3533 4.3549C94.1457 4.19129 93.9123 4.07035 93.6648 3.99822L93.5582 3.97061C93.2712 3.90414 92.9744 3.90361 92.6871 3.96907L92.5801 3.99674C92.3325 4.06802 92.0988 4.18782 91.8909 4.35059C91.6533 4.53664 91.4546 4.77459 91.3077 5.04897C91.1609 5.32335 91.0693 5.62801 91.0387 5.94313L91.03 6.06105C91.0167 6.33737 91.0508 6.61432 91.1305 6.87801C91.1866 7.01902 91.1998 7.17566 91.168 7.32526L91.1359 7.4343C91.0964 7.53997 91.0341 7.6348 90.9535 7.71013L87.3946 11.7372C86.2088 13.08 85.0219 14.4216 83.8306 15.7584C83.6985 15.8975 83.5284 15.9861 83.3467 16.0111L83.2681 16.0176H80.6073L80.582 16.0654C79.6909 16.0654 78.7997 16.0654 77.9149 16.0654C77.6584 16.0779 77.4134 16.1837 77.2197 16.3655L76.1613 17.5438C75.1057 18.7291 74.058 19.9326 73.0104 21.1399C72.9462 21.2038 72.895 21.2813 72.86 21.3676L72.8366 21.4337C72.8168 21.5006 72.8069 21.5707 72.8069 21.6412L72.8105 21.7117Z" fill="#00B3F8"/>
<path d="M87.5709 30.5164C88.7581 30.5164 89.9453 30.5164 91.1325 30.5164C91.292 30.5403 91.4546 30.5083 91.5942 30.4255C91.7339 30.3426 91.8423 30.2138 91.9022 30.0597C92.1459 29.5983 92.5422 29.2421 93.0191 29.0557C93.4961 28.8693 94.0222 28.865 94.5019 29.0437C94.9817 29.2225 95.3833 29.5723 95.634 30.0297C95.8847 30.4872 95.9677 31.022 95.8682 31.5371C95.7746 32.0682 95.4938 32.5449 95.0797 32.8759C94.6655 33.2068 94.1472 33.3685 93.6243 33.3301C93.26 33.3164 92.9063 33.2003 92.6015 32.9943C92.2968 32.7883 92.0527 32.5003 91.8957 32.1616C91.8549 32.0426 91.7755 31.9416 91.6711 31.8756C91.5666 31.8096 91.4432 31.7826 91.3216 31.799C88.9734 31.799 86.6316 31.799 84.2899 31.799C84.0582 31.8068 83.8375 31.9024 83.6702 32.0676C81.6285 34.2904 79.5998 36.5333 77.5646 38.7829C77.5254 38.8833 77.4632 38.9725 77.3832 39.0428C77.3033 39.1131 77.2081 39.1624 77.1056 39.1867C77.0032 39.2109 76.8965 39.2093 76.7948 39.182C76.6931 39.1547 76.5993 39.1025 76.5214 39.0298C76.4435 38.9571 76.3838 38.8661 76.3475 38.7645C76.3111 38.663 76.2991 38.5539 76.3125 38.4466C76.3259 38.3392 76.3643 38.2368 76.4245 38.148C76.4846 38.0593 76.5647 37.9868 76.6579 37.9368C78.8323 35.5461 81.0066 33.1644 83.1809 30.7917C83.3947 30.6065 83.6648 30.5043 83.9441 30.503C85.1574 30.503 86.3772 30.503 87.5905 30.503L87.5709 30.5164ZM93.7612 32.2355C93.9073 32.2382 94.0525 32.2108 94.1881 32.1549C94.3238 32.0989 94.4472 32.0157 94.5512 31.9099C94.6551 31.8042 94.7374 31.6781 94.7933 31.5391C94.8492 31.4001 94.8776 31.2511 94.8767 31.1006C94.8767 30.812 94.7667 30.5349 94.5703 30.3289C94.3739 30.1229 94.1068 30.0046 93.8265 29.9993C93.6834 29.9971 93.5414 30.0239 93.4084 30.0783C93.2754 30.1326 93.1541 30.2133 93.0514 30.3159C92.8441 30.5231 92.7252 30.8065 92.7208 31.104C92.7165 31.4014 92.8271 31.6884 93.0284 31.9019C93.2296 32.1153 93.505 32.2378 93.7939 32.2422L93.7612 32.2355Z" fill="#00B3F8"/>
<path d="M92.9689 28.9135C93.4776 28.7147 94.0384 28.7103 94.55 28.9009C95.0617 29.0915 95.4909 29.4647 95.759 29.9538C96.0267 30.4423 96.1154 31.0137 96.0097 31.5643C95.9095 32.133 95.6096 32.6434 95.1672 32.9969C94.725 33.3502 94.1719 33.5228 93.6143 33.4818C93.2259 33.4663 92.8487 33.3421 92.5233 33.1222C92.1965 32.9013 91.9343 32.5919 91.7655 32.2279L91.762 32.2205L91.7599 32.2131C91.7305 32.1274 91.6731 32.0537 91.5968 32.0055C91.5204 31.9573 91.4298 31.9379 91.3404 31.9499L91.3312 31.9506H84.2941C84.0975 31.9573 83.9107 32.0388 83.7694 32.1783C81.7349 34.3933 79.7128 36.6279 77.6842 38.8702C77.6358 38.9812 77.5655 39.0806 77.4759 39.1594C77.3783 39.2452 77.2623 39.3056 77.1377 39.3352C77.013 39.3647 76.883 39.3624 76.7591 39.3292C76.6353 39.2959 76.5204 39.232 76.4251 39.1431C76.33 39.0543 76.2565 38.943 76.2119 38.8183C76.1671 38.6935 76.1523 38.5589 76.1688 38.4268C76.1853 38.2947 76.2327 38.1687 76.3065 38.0598C76.3749 37.9589 76.4645 37.8761 76.5678 37.8158C78.7374 35.4304 80.9071 33.054 83.0767 30.6864L83.0823 30.6804L83.0887 30.6745C83.3283 30.4668 83.6308 30.3528 83.9432 30.3512H88.0764L88.0567 30.3646H91.1427L91.1533 30.3661C91.2812 30.3852 91.4117 30.3596 91.5233 30.2934C91.6348 30.2272 91.721 30.1245 91.7684 30.0027L91.7712 29.9938L91.7754 29.9864C92.0361 29.4928 92.46 29.1123 92.9689 28.9135ZM94.5019 29.0437C94.0222 28.865 93.4961 28.8693 93.0191 29.0557L92.8439 29.1337C92.4453 29.3331 92.1154 29.6561 91.9022 30.0597L91.8482 30.1703C91.7859 30.2753 91.6989 30.3634 91.5942 30.4255C91.4546 30.5083 91.292 30.5403 91.1325 30.5164H87.5709L87.5905 30.503H83.9441C83.6648 30.5043 83.3947 30.6065 83.1809 30.7917L79.9193 34.3575C78.8322 35.5483 77.745 36.7415 76.6579 37.9368C76.5647 37.9868 76.4846 38.0593 76.4245 38.148C76.3643 38.2368 76.3259 38.3392 76.3125 38.4466L76.3072 38.5269C76.3066 38.6077 76.3202 38.6884 76.3475 38.7645C76.3838 38.8661 76.4435 38.9571 76.5214 39.0298C76.5993 39.1025 76.6931 39.1547 76.7948 39.182C76.871 39.2025 76.9503 39.2087 77.0282 39.2002L77.1056 39.1867C77.1824 39.1685 77.2553 39.1359 77.3206 39.0912L77.3832 39.0428C77.4632 38.9725 77.5254 38.8833 77.5646 38.7829C79.5998 36.5333 81.6285 34.2904 83.6702 32.0676C83.8375 31.9024 84.0582 31.8068 84.2899 31.799H91.3216L91.4132 31.7949C91.5039 31.7987 91.5928 31.8262 91.6711 31.8756C91.7755 31.9416 91.8549 32.0426 91.8957 32.1616C92.0527 32.5003 92.2968 32.7883 92.6015 32.9943C92.9063 33.2003 93.26 33.3164 93.6243 33.3301C94.0818 33.3637 94.5356 33.2438 94.9194 32.9917L95.0797 32.8759C95.4938 32.5449 95.7746 32.0682 95.8682 31.5371C95.9552 31.0864 95.9027 30.6202 95.7202 30.2044L95.634 30.0297C95.4146 29.6295 95.0795 29.3118 94.6779 29.1189L94.5019 29.0437ZM93.8265 29.9993C94.1068 30.0046 94.3739 30.1229 94.5703 30.3289C94.7667 30.5349 94.8767 30.812 94.8767 31.1006C94.8776 31.2511 94.8492 31.4001 94.7933 31.5391L94.7464 31.6407C94.6948 31.7397 94.629 31.8307 94.5512 31.9099L94.4695 31.9847C94.3847 32.0553 94.2897 32.1129 94.1881 32.1549L94.0847 32.1916C93.9798 32.2228 93.8708 32.2375 93.7612 32.2355L93.7939 32.2422C93.505 32.2378 93.2296 32.1153 93.0284 31.9019C92.8524 31.7152 92.7456 31.472 92.7245 31.2151L92.7208 31.104C92.7246 30.8438 92.8164 30.5943 92.9781 30.3972L93.0514 30.3159C93.1283 30.2391 93.2158 30.174 93.3107 30.1236L93.4084 30.0783C93.5414 30.0239 93.6834 29.9971 93.8265 29.9993ZM93.7316 30.1547C93.6389 30.1627 93.5478 30.1846 93.4611 30.22C93.3456 30.2672 93.24 30.3373 93.1511 30.4261C92.9717 30.6054 92.8696 30.85 92.8658 31.1061C92.8621 31.3622 92.9571 31.6101 93.1313 31.7949C93.298 31.9717 93.5239 32.0756 93.7633 32.0878L93.7641 32.0833C93.8912 32.0857 94.0176 32.0622 94.1355 32.0136C94.2534 31.965 94.3604 31.8925 94.4505 31.8008C94.5405 31.7092 94.6119 31.5998 94.6602 31.4798C94.7084 31.3598 94.733 31.2313 94.7322 31.1016C94.7323 30.8538 94.6376 30.6143 94.4681 30.4365C94.2985 30.2587 94.0673 30.1557 93.8241 30.151L93.7316 30.1547Z" fill="#00B3F8"/>
<path d="M67.9274 33.4974C67.8766 32.5453 67.5376 31.7223 66.9105 31.0283C66.2156 30.3342 65.2962 29.9872 64.1522 29.9872L64.1267 27.5981C65.9487 27.5981 67.4232 28.1898 68.5503 29.3732C69.6265 30.53 70.1773 31.9047 70.2028 33.4974V39.6103H61.7879V37.4081H67.9274V33.4974ZM69.1604 24.555C69.1604 24.9643 69.0164 25.3202 68.7282 25.6228C68.4232 25.9431 68.0545 26.1033 67.6224 26.1033C67.1732 26.1033 66.8046 25.952 66.5165 25.6495C66.2114 25.3291 66.0589 24.9643 66.0589 24.555C66.0589 24.1279 66.2114 23.7542 66.5165 23.4339C66.7876 23.1491 67.1563 23.0068 67.6224 23.0068C68.0715 23.0068 68.4401 23.158 68.7282 23.4606C69.0164 23.7631 69.1604 24.1279 69.1604 24.555Z" fill="#00B3F8"/>
<path d="M57.8474 28.4657C58.2287 28.7059 58.5931 29.0084 58.9405 29.3732C60.0422 30.5478 60.593 31.9581 60.593 33.6042C60.593 35.2503 60.0422 36.6517 58.9405 37.8085C57.8728 38.9563 56.5889 39.5569 55.089 39.6103H45.9369V37.4081H50.9833L55.3178 37.3814V37.3947C55.9873 37.368 56.6525 37.0076 57.3135 36.3136C57.9829 35.6107 58.3177 34.7431 58.3177 33.711C58.3177 32.661 57.9745 31.7668 57.2881 31.0283C57.0932 30.8058 56.8728 30.6234 56.6271 30.481C56.1271 30.1696 55.5847 30.005 55 29.9872H52.4196C51.5468 30.005 50.6824 30.441 49.8265 31.2952L49.5087 30.7613L48.2376 29.7336L53.6526 22.3661L55.3814 23.7542L52.5722 27.5981H55C56.0593 27.6159 57.0084 27.9051 57.8474 28.4657Z" fill="#00B3F8"/>
<path d="M43.598 31.2151H40.293C41.1405 32.1049 41.5642 33.3729 41.5642 35.019C41.5642 36.674 41.0049 38.0887 39.8863 39.2633C38.7762 40.4378 37.416 41.0251 35.806 41.0251C34.1874 41.0251 32.8146 40.4378 31.6875 39.2633C30.5689 38.0887 30.0096 36.674 30.0096 35.019V34.6719H32.3485C32.3485 35.8821 32.6917 36.8475 33.3781 37.5682C34.056 38.2801 34.8738 38.636 35.8314 38.636C36.7635 38.636 37.5728 38.2801 38.2592 37.5682C38.9456 36.8475 39.2888 35.9621 39.2888 34.9122C39.2888 33.88 38.9541 33.0125 38.2847 32.3096C37.6237 31.6155 36.8017 31.2463 35.8187 31.2018V29.0129H45.8225V37.4081H47.0809V39.6103H43.598V31.2151Z" fill="#00B3F8"/>
<path d="M70.2028 33.4974C70.1773 31.9047 69.6265 30.53 68.5503 29.3732C67.4232 28.1898 65.9487 27.5981 64.1267 27.5981L64.1522 29.9872C65.2962 29.9872 66.2156 30.3342 66.9105 31.0283C67.5376 31.7223 67.8766 32.5453 67.9274 33.4974V37.4081H61.7879V39.6103H70.2028V33.4974ZM69.1604 24.555C69.1604 24.1813 69.0501 23.8553 68.8295 23.577L68.7282 23.4606C68.4762 23.1959 68.1625 23.0473 67.7872 23.0142L67.6224 23.0068C67.1563 23.0068 66.7876 23.1491 66.5165 23.4339L66.4095 23.5562C66.1757 23.8483 66.0589 24.1812 66.0589 24.555L66.0662 24.7063C66.0996 25.0547 66.2495 25.3691 66.5165 25.6495C66.7685 25.914 67.0823 26.0627 67.4574 26.0958L67.6224 26.1033C68.0003 26.1032 68.3299 25.9805 68.6106 25.7355L68.7282 25.6228C68.9802 25.3582 69.1221 25.0526 69.1537 24.7063L69.1604 24.555ZM70.3839 39.8001H61.6074V37.2182H67.747V33.5078C67.6986 32.6023 67.3782 31.8226 66.7823 31.1617C66.1688 30.5509 65.3655 30.2198 64.3573 30.1807L64.1525 30.177H63.9731L63.9717 29.9894L63.9442 27.4083H64.1271C65.8729 27.4083 67.3205 27.9414 68.4553 29.0166L68.6784 29.239L68.6798 29.2405C69.7185 30.3569 70.2843 31.6756 70.3726 33.189L70.3839 33.4945V39.8001ZM69.3338 24.7256C69.2978 25.1169 69.1366 25.4627 68.8564 25.757C68.5174 26.1129 68.1026 26.293 67.6227 26.2931C67.1924 26.2931 66.8193 26.165 66.5147 25.9038L66.389 25.7837C66.054 25.4319 65.8784 25.0203 65.8784 24.555C65.8784 24.0743 66.0523 23.6532 66.389 23.2997C66.7011 22.972 67.1197 22.817 67.6227 22.817C68.0528 22.817 68.4254 22.9451 68.73 23.2062L68.8564 23.3264C69.1782 23.6644 69.3415 24.0776 69.3415 24.555L69.3338 24.7256Z" fill="#00B3F8"/>
<path d="M60.593 33.6042C60.593 31.9581 60.0422 30.5478 58.9405 29.3732C58.5931 29.0084 58.2287 28.7059 57.8474 28.4657C57.0084 27.9051 56.0593 27.6159 55 27.5981H52.5722L55.3814 23.7542L53.6526 22.3661L48.2376 29.7336L49.5087 30.7613L49.8265 31.2952C50.6824 30.441 51.5468 30.005 52.4196 29.9872H55C55.5847 30.005 56.1271 30.1696 56.6271 30.481C56.8728 30.6234 57.0932 30.8058 57.2881 31.0283C57.9745 31.7668 58.3177 32.661 58.3177 33.711L58.3138 33.9023C58.2746 34.8507 57.9411 35.6546 57.3135 36.3136L57.1895 36.4397C56.5694 37.0512 55.9454 37.3696 55.3178 37.3947V37.3814L50.9833 37.4081H45.8225L45.8228 37.2182H50.9822L55.3167 37.1915L55.4749 37.1901C56.0315 37.1181 56.6019 36.7926 57.186 36.1794C57.82 35.5136 58.1372 34.6949 58.1372 33.711C58.1372 32.7722 57.8507 31.9698 57.2771 31.2944L57.1584 31.161L57.1549 31.1565C57.0184 31.0007 56.869 30.8663 56.7065 30.7532L56.5398 30.6471L56.5349 30.6442C56.1207 30.3862 55.6767 30.2348 55.2009 30.1896L54.9947 30.177H52.4235L52.2702 30.1844C51.5062 30.2458 50.7338 30.652 49.9511 31.4331L49.7908 31.5933L49.6729 31.396L49.3721 30.8903L48.1271 29.8841L47.9837 29.7677L48.0946 29.6179L53.6198 22.1007L53.7624 22.2156L55.4911 23.6037L55.6352 23.7186L55.525 23.8699L52.939 27.4083H55.0032C56.0915 27.4266 57.0718 27.724 57.9395 28.3025C58.236 28.4893 58.5226 28.7122 58.7975 28.9699L59.0687 29.239L59.0694 29.2398C60.2043 30.4497 60.7741 31.9082 60.7741 33.6042L60.767 33.9193C60.7003 35.4798 60.1332 36.8227 59.0694 37.9404C57.9698 39.1225 56.6424 39.745 55.095 39.8001H45.7564V39.6103H55.089L55.3676 39.594C56.7485 39.4798 57.9395 38.8846 58.9405 37.8085C59.9733 36.724 60.5218 35.4243 60.5863 33.9097L60.593 33.6042Z" fill="#00B3F8"/>
<path d="M32.3485 34.6719H30.0096V35.019L30.0163 35.3267C30.0819 36.85 30.6389 38.1622 31.6875 39.2633C32.7441 40.3643 34.0169 40.9496 35.5054 41.0184L35.806 41.0251C37.3153 41.025 38.6055 40.5091 39.6754 39.4768L39.8863 39.2633C40.9348 38.1622 41.4918 36.8499 41.5574 35.3267L41.5642 35.019C41.5642 33.3729 41.1405 32.1049 40.293 31.2151H43.598V39.6103H47.262V39.8001H43.4175V31.4049H40.698C41.4012 32.3128 41.7453 33.5239 41.7453 35.019L41.7382 35.3356C41.6705 36.9061 41.0947 38.2631 40.0144 39.3975L40.0137 39.3967C38.869 40.6077 37.4631 41.2148 35.8063 41.2149C34.2451 41.2149 32.9002 40.6818 31.781 39.6177L31.56 39.3982C30.4076 38.1882 29.8291 36.7245 29.8291 35.019V34.4821H32.5296V34.6719L32.5331 34.8885C32.5692 35.8841 32.8574 36.6848 33.3883 37.3042L33.5062 37.434C34.1503 38.1102 34.9222 38.4461 35.8317 38.4461L35.8314 38.636L35.6537 38.6315C34.831 38.5926 34.1155 38.2813 33.5069 37.6972L33.3781 37.5682C32.6917 36.8475 32.3485 35.8821 32.3485 34.6719ZM45.8225 29.0129H35.8187V31.2018C36.8017 31.2463 37.6237 31.6155 38.2847 32.3096C38.9541 33.0125 39.2888 33.88 39.2888 34.9122L39.2849 35.1072C39.2447 36.0721 38.9026 36.8926 38.2592 37.5682L38.1289 37.6972C37.4711 38.3228 36.7052 38.6359 35.8314 38.636L35.8317 38.4461C36.7143 38.4461 37.4786 38.1113 38.1324 37.4333C38.7832 36.7495 39.1084 35.9131 39.1084 34.9122C39.1084 33.9898 38.8295 33.2127 38.2723 32.5706L38.1572 32.4438C37.5692 31.8264 36.8482 31.4788 35.9856 31.4027L35.8112 31.3916L35.6382 31.3834V28.8231H46.0036V37.2182H47.262V37.4081H45.8225V29.0129Z" fill="#00B3F8"/>
</svg>
