<svg width="24" height="25" viewBox="0 0 24 25" fill="none" xmlns="http://www.w3.org/2000/svg">
<path d="M18.0258 11.125C18.6794 17.1719 21.25 19 21.25 19H1C1 19 4.375 16.6004 4.375 8.2C4.375 6.29087 5.086 4.45938 6.35162 3.10938C7.61725 1.75937 9.33625 1 11.125 1C11.5053 1 11.8803 1.03375 12.25 1.10125M13.0712 22.375C12.8735 22.716 12.5896 22.999 12.248 23.1957C11.9064 23.3925 11.5192 23.496 11.125 23.496C10.7308 23.496 10.3436 23.3925 10.002 23.1957C9.66043 22.999 9.37654 22.716 9.17875 22.375M19 7.75C19.8951 7.75 20.7536 7.39442 21.3865 6.76149C22.0194 6.12855 22.375 5.27011 22.375 4.375C22.375 3.47989 22.0194 2.62145 21.3865 1.98851C20.7536 1.35558 19.8951 1 19 1C18.1049 1 17.2464 1.35558 16.6135 1.98851C15.9806 2.62145 15.625 3.47989 15.625 4.375C15.625 5.27011 15.9806 6.12855 16.6135 6.76149C17.2464 7.39442 18.1049 7.75 19 7.75Z" stroke="white" stroke-width="2" stroke-linecap="round" stroke-linejoin="round"/>
</svg>
