<svg width="19" height="19" viewBox="0 0 19 19" fill="none" xmlns="http://www.w3.org/2000/svg">
<path d="M5.76305 12.2872C4.49334 11.0175 2.83339 10.2119 1.05029 10C1.55988 9.11608 2.28646 8.37671 3.16136 7.85177C4.03625 7.32684 5.03056 7.03368 6.05029 7C6.64098 5.32089 7.7163 3.85464 9.14028 2.78665C10.5643 1.71867 12.273 1.09691 14.0503 1C14.8459 1 15.609 1.31607 16.1716 1.87868C16.7342 2.44129 17.0503 3.20435 17.0503 4C16.9534 5.77734 16.3316 7.48603 15.2636 8.91001C14.1957 10.334 12.7294 11.4093 11.0503 12C11.0166 13.0197 10.7235 14.014 10.1985 14.8889C9.67358 15.7638 8.93421 16.4904 8.05029 17C7.83839 15.2169 7.03276 13.557 5.76305 12.2872Z" stroke="white" stroke-width="2" stroke-linecap="round" stroke-linejoin="round"/>
<path d="M4.05029 11C3.00952 11.5876 2.16794 12.4726 1.63344 13.5416C1.09894 14.6106 0.895881 15.8148 1.05029 17C2.23544 17.1544 3.43971 16.9513 4.50871 16.4168C5.5777 15.8823 6.46272 15.0408 7.05029 14M11.0503 6C11.0503 6.26522 11.1556 6.51957 11.3432 6.70711C11.5307 6.89464 11.7851 7 12.0503 7C12.3155 7 12.5699 6.89464 12.7574 6.70711C12.9449 6.51957 13.0503 6.26522 13.0503 6C13.0503 5.73478 12.9449 5.48043 12.7574 5.29289C12.5699 5.10536 12.3155 5 12.0503 5C11.7851 5 11.5307 5.10536 11.3432 5.29289C11.1556 5.48043 11.0503 5.73478 11.0503 6Z" stroke="white" stroke-width="2" stroke-linecap="round" stroke-linejoin="round"/>
</svg>
