<svg width="24" height="24" viewBox="0 0 24 24" fill="none" xmlns="http://www.w3.org/2000/svg">
<path d="M21.3333 3.33334H2.66667C1.95942 3.33334 1.28115 3.61429 0.781049 4.11438C0.280952 4.61448 0 5.29276 0 6L0 18C0 18.7072 0.280952 19.3855 0.781049 19.8856C1.28115 20.3857 1.95942 20.6667 2.66667 20.6667H21.3333C22.0406 20.6667 22.7189 20.3857 23.219 19.8856C23.719 19.3855 24 18.7072 24 18V6C24 5.29276 23.719 4.61448 23.219 4.11438C22.7189 3.61429 22.0406 3.33334 21.3333 3.33334Z" fill="#006C35"/>
<path d="M5.9468 9.36667C6.36814 9.40667 6.13547 8.654 6.28814 8.51733C6.3168 8.45 6.37014 8.44933 6.37414 8.53467V9.17333C6.37014 9.38133 6.50681 9.442 6.61281 9.48533C6.72347 9.47667 6.7968 9.48067 6.84014 9.588L6.89214 10.6933C6.89214 10.6933 7.14814 10.7667 7.16014 10.0713C7.17281 9.66333 7.0788 9.322 7.13414 9.24267C7.13614 9.16467 7.23547 9.16 7.30481 9.198C7.41481 9.27533 7.46414 9.37133 7.63481 9.33333C7.89547 9.262 8.05147 9.13533 8.05547 8.93533C8.04014 8.74533 8.01881 8.55533 7.93681 8.36533C7.94814 8.33067 7.8868 8.24133 7.89814 8.20667C7.9448 8.28 8.01614 8.274 8.03214 8.20667C7.98814 8.06067 7.91947 7.92067 7.80747 7.86C7.71547 7.77867 7.5808 7.79533 7.53147 7.96467C7.5088 8.15933 7.60214 8.39133 7.74347 8.58C7.77347 8.654 7.81614 8.77667 7.79747 8.88733C7.72214 8.93 7.64614 8.91267 7.58347 8.846C7.58347 8.846 7.37614 8.69067 7.37614 8.656C7.43147 8.304 7.38881 8.264 7.35814 8.16667C7.33681 8.032 7.2728 7.98867 7.2208 7.89667C7.1688 7.842 7.09881 7.842 7.06547 7.89667C6.97347 8.05533 7.01614 8.39667 7.08281 8.54933C7.13014 8.68933 7.20347 8.778 7.1688 8.778C7.14014 8.85733 7.08147 8.83867 7.03881 8.74733C6.97747 8.558 6.96547 8.276 6.96547 8.14867C6.9468 7.99133 6.92681 7.65467 6.82347 7.56933C6.76014 7.48333 6.66614 7.52467 6.63347 7.604C6.62681 7.76 6.62547 7.91667 6.64347 8.06133C6.71414 8.314 6.7368 8.53667 6.77147 8.796C6.7808 9.14333 6.57081 8.94667 6.58014 8.77467C6.62881 8.55133 6.61614 8.19933 6.5728 8.11C6.5388 8.02133 6.49814 7.99867 6.41547 8.01333C6.35014 8.008 6.1808 8.19333 6.1328 8.5C6.1328 8.5 6.09214 8.658 6.0748 8.79867C6.05147 8.95733 5.94747 9.06933 5.87414 8.77667C5.81081 8.564 5.77214 8.03933 5.66614 8.162C5.63547 8.572 5.5988 9.29333 5.9468 9.36667Z" fill="white"/>
<path d="M6.58089 9.666C6.23422 9.67267 5.72689 10.1213 5.71289 10.37C6.07822 10.194 6.43756 10.0247 6.80956 9.84333C6.74956 9.75333 6.80622 9.67267 6.58089 9.666Z" fill="white"/>
<path d="M8.49194 11.0107C8.6526 10.4753 8.46594 10.0807 8.55327 10.0827C8.73794 10.282 8.9966 10.1093 9.05327 10.04C9.07794 10.0053 9.1386 9.98266 9.18127 10.028C9.32594 10.132 9.58061 10.0827 9.63327 9.89999C9.66663 9.71654 9.68713 9.53098 9.6946 9.34466C9.57661 9.38133 9.48861 9.40599 9.4806 9.45466L9.45594 9.61333C9.44594 9.66466 9.34394 9.66666 9.33994 9.60133C9.29527 9.39799 9.10994 9.37133 8.99794 9.68666C8.9226 9.74799 8.7866 9.75999 8.77194 9.66866C8.78994 9.45733 8.7046 9.42866 8.53394 9.52799C8.47927 9.10866 8.42394 8.70799 8.36927 8.28866C8.4406 8.28666 8.50594 8.33933 8.5706 8.25799C8.49927 8.03599 8.3486 7.58266 8.26527 7.54999C8.2246 7.50066 8.18994 7.53133 8.13727 7.54399C8.04794 7.57266 7.9646 7.64999 7.9906 7.79999C8.0966 8.44333 8.16594 8.93333 8.27127 9.57666C8.28727 9.65199 8.2246 9.75133 8.14327 9.74133C8.00527 9.64799 7.9706 9.45866 7.7346 9.46666C7.56327 9.46866 7.36794 9.65399 7.34394 9.83333C7.31527 9.97533 7.30527 10.13 7.34394 10.2547C7.46394 10.3987 7.6086 10.3847 7.7346 10.352C7.83794 10.3093 7.92394 10.2053 7.95994 10.23C7.9846 10.26 7.96594 10.602 7.47194 10.8647C7.1726 10.9987 6.9346 11.0293 6.8066 10.7853C6.72727 10.6327 6.8126 10.0527 6.61727 10.1873C6.03927 11.6773 7.9706 11.884 8.1866 10.2487C8.20727 10.1813 8.2886 10.114 8.3026 10.224C8.25794 11.7053 6.8086 11.8073 6.5626 11.3413C6.50127 11.2313 6.48327 10.9873 6.47727 10.8407C6.4406 10.5493 6.28794 10.6613 6.26394 10.95C6.23927 11.1107 6.24594 11.156 6.24594 11.31C6.3226 12.48 8.18927 11.9773 8.49194 11.0107ZM7.77194 9.99866C7.75994 10.0213 7.70727 10.012 7.6686 10.012C7.6246 10.01 7.60394 10.0027 7.57727 9.96733C7.56527 9.92733 7.6026 9.88933 7.61927 9.85933C7.63994 9.82399 7.75127 9.78733 7.7906 9.88599C7.79775 9.90475 7.79978 9.92506 7.7965 9.94485C7.79322 9.96465 7.78474 9.98322 7.77194 9.99866Z" fill="white"/>
<path d="M9.06848 8.67266C9.18448 8.62999 9.73448 8.00133 9.73448 8.00133C9.70581 7.97666 9.68048 7.95866 9.65181 7.93399C9.62115 7.90733 9.62448 7.88066 9.65181 7.85466C9.78781 7.77533 9.74448 7.60133 9.67315 7.52199C9.62694 7.49961 9.57618 7.48821 9.52483 7.48867C9.47349 7.48913 9.42295 7.50145 9.37715 7.52466C9.28181 7.61599 9.25915 7.76266 9.33448 7.85466C9.40781 7.88933 9.48115 7.96333 9.43248 8.00399C9.20781 8.24399 8.59181 8.65799 8.66315 8.67266C8.67848 8.69266 9.05648 8.69199 9.06848 8.67266ZM9.47581 7.68533C9.51115 7.67666 9.55648 7.70799 9.57781 7.75466C9.59915 7.80133 9.58781 7.84599 9.55315 7.85466H9.55181C9.51715 7.86333 9.47181 7.83199 9.45048 7.78533C9.42981 7.73799 9.44115 7.69399 9.47581 7.68533ZM5.90848 11.5053C5.81781 11.69 5.77981 11.5633 5.77181 11.46C5.76165 11.2865 5.77036 11.1123 5.79781 10.9407C5.82048 10.794 5.79781 10.8387 5.75115 10.898C5.54515 11.226 5.52715 11.7167 5.64115 11.8627C5.70115 11.932 5.80048 11.9627 5.87448 11.94C6.00381 11.884 6.06048 11.6213 6.02981 11.526C5.98581 11.4587 5.95181 11.448 5.90848 11.5053ZM12.6958 8.03333C12.9331 8.35199 13.1585 8.67666 13.3791 9.00733C13.4227 9.29311 13.4538 9.57466 13.4725 9.85199C13.5091 10.388 13.5198 10.968 13.4865 11.5327C13.5865 11.5367 13.7485 11.37 13.8045 11.1267C13.8411 10.79 13.7911 10.1907 13.7878 9.99199C13.7834 9.86748 13.7774 9.74302 13.7698 9.61866C14.0325 10.048 14.2885 10.4973 14.5385 10.9967C14.6298 10.954 14.6098 10.4433 14.5565 10.3713C14.3565 9.94266 14.0811 9.51866 13.9931 9.35599C13.9605 9.29599 13.8491 9.12533 13.7165 8.92999C13.7046 8.77414 13.686 8.61888 13.6605 8.46466C13.6191 8.17933 13.7785 8.49599 13.7565 8.32999C13.7051 8.04466 13.5465 7.85199 13.3611 7.59066C13.3011 7.50599 13.3031 7.48866 13.2105 7.61133C13.1784 7.68501 13.1633 7.76501 13.1665 7.84533C13.1372 7.80304 13.1063 7.7619 13.0738 7.72199L12.7705 7.46333C12.7031 7.41533 12.5391 7.32866 12.5098 7.47266C12.4969 7.57363 12.5019 7.67608 12.5245 7.77533C12.5418 7.84666 12.6451 7.96533 12.6958 8.03333ZM13.1891 8.01733C13.2018 8.07266 13.2151 8.12799 13.2238 8.18466L13.2338 8.23866C13.2057 8.19966 13.1766 8.16142 13.1465 8.12399C13.0371 7.99466 13.1278 8.02266 13.1891 8.01733Z" fill="white"/>
<path d="M14.6132 11.1287C14.3812 11.3707 14.0466 11.6687 13.6826 11.8067C13.6432 11.8507 13.7799 12.0393 13.9559 12.0393C14.2512 12.0047 14.5112 11.8387 14.7519 11.402C14.8166 11.3007 14.9299 11.0827 14.9326 10.9133C14.9546 9.92267 14.8832 9.15133 14.7346 8.43533C14.7246 8.37788 14.7274 8.31895 14.7426 8.26267C14.7612 8.24 14.8266 8.26267 14.8612 8.20667C14.9112 8.15467 14.7272 7.728 14.6219 7.564C14.5846 7.49067 14.5719 7.44133 14.5099 7.57267C14.4446 7.67933 14.4012 7.86533 14.4066 8.03867C14.5472 9.014 14.5906 9.868 14.6826 10.8433C14.6899 10.9373 14.6759 11.0747 14.6132 11.1287ZM18.4999 8.65533C18.4899 8.586 18.4592 8.42467 18.4712 8.404C18.4899 8.35467 18.5866 8.40933 18.6212 8.35267C18.6719 8.30133 18.3719 7.916 18.2672 7.752C18.2292 7.67867 18.2166 7.62933 18.1546 7.76067C18.0892 7.86733 18.0666 8.05867 18.0926 8.22667C18.2492 9.286 18.3659 10.082 18.3899 11.0213C18.3759 11.1107 18.3732 11.1587 18.3312 11.2707C18.2386 11.3893 18.1366 11.5373 18.0399 11.6093C17.9439 11.6807 17.7392 11.7493 17.6719 11.802C17.4606 11.9253 17.4599 12.066 17.6319 12.0707C17.9266 12.036 18.2759 12.012 18.5166 11.648C18.5812 11.5467 18.6579 11.2713 18.6612 11.102C18.6832 10.1113 18.6486 9.37133 18.4999 8.65533ZM16.2659 9.48C16.2686 9.344 16.2812 9.164 16.2886 9.05133C16.2919 9.00933 16.3019 8.962 16.3419 8.95133C16.3826 8.94067 16.4546 8.99267 16.4552 8.94867C16.4472 8.86267 16.4299 8.73467 16.3812 8.674C16.3146 8.57533 16.1379 8.59933 16.1066 8.754C16.1072 8.81133 16.1332 8.842 16.1286 8.894C16.1206 8.92333 16.0899 8.94333 16.0172 8.90867C16.0292 8.898 15.9699 8.816 15.9699 8.816C15.9132 8.78133 15.8372 8.818 15.7886 8.84933C15.7712 8.88301 15.7608 8.91987 15.758 8.95769C15.7553 8.99551 15.7602 9.03349 15.7726 9.06933C15.8526 9.22067 16.1319 9.47733 16.2659 9.48Z" fill="white"/>
<path d="M16.1721 8.32067L16.7674 9.04933C16.8108 9.6 16.8221 10.0507 16.8648 10.6013C16.8588 10.8347 16.7868 11.038 16.7181 11.0673C16.7181 11.0673 16.6148 11.1273 16.5454 11.0613C16.4948 11.0407 16.2928 10.7247 16.2928 10.7247C16.1894 10.63 16.1214 10.6567 16.0481 10.7247C15.8454 10.92 15.7541 11.2867 15.6168 11.5387C15.5808 11.5953 15.4808 11.6433 15.3694 11.5347C15.0874 11.1487 15.2528 10.6 15.2181 10.7413C14.9668 11.0247 15.0774 11.4933 15.1341 11.5947C15.2168 11.76 15.2841 11.8667 15.4454 11.9487C15.5921 12.0567 15.7068 11.9887 15.7694 11.9133C15.9174 11.7593 15.9194 11.3693 15.9888 11.2907C16.0368 11.1487 16.1601 11.1727 16.2194 11.236C16.2742 11.3123 16.3462 11.3746 16.4294 11.418C16.5674 11.54 16.7321 11.562 16.8941 11.4507C17.0048 11.3887 17.0774 11.308 17.1421 11.1487C17.2141 10.9567 17.1748 10.074 17.1601 9.54467C17.2634 9.678 17.3641 9.81733 17.4661 9.95667C17.5108 10.3987 17.5361 10.8387 17.5214 11.288C17.5108 11.378 17.8348 11.0213 17.8321 10.852V10.4747C17.9881 10.7093 18.1401 10.9513 18.2828 11.2073C18.3721 11.1607 18.3428 10.6573 18.2861 10.588C18.1214 10.312 17.9021 10.0247 17.7508 9.81933C17.7408 9.79333 17.7354 9.764 17.7234 9.73933C17.6628 9.59867 17.7008 9.48533 17.6721 9.336C17.6441 9.186 17.6514 8.962 17.6081 8.784C17.5961 8.71467 17.5601 8.492 17.5708 8.47133C17.5881 8.42133 17.6548 8.47267 17.6874 8.41533C17.7361 8.362 17.5188 7.79867 17.4081 7.63733C17.3681 7.56533 17.2961 7.59 17.2068 7.70733C17.1248 7.78467 17.1554 7.96067 17.1868 8.128C17.2648 8.53333 17.3301 8.922 17.3861 9.30667C17.2662 9.14729 17.1451 8.98884 17.0228 8.83133L17.0174 8.802C17.0174 8.79467 16.9994 8.45267 16.9834 8.37133C16.9808 8.33867 16.9728 8.32867 17.0074 8.33267C17.0441 8.36333 17.0488 8.36533 17.0721 8.376C17.1094 8.38267 17.1421 8.31933 17.1201 8.26133L16.7754 7.62667C16.7481 7.59933 16.7121 7.57 16.6688 7.634C16.6417 7.65738 16.6201 7.68637 16.6053 7.71895C16.5906 7.75152 16.5831 7.78691 16.5834 7.82267C16.5941 7.97267 16.6201 8.126 16.6301 8.27667L16.6448 8.358C16.6294 8.34 16.6108 8.31733 16.6028 8.30933C16.3101 8.00133 16.7374 8.25933 16.5468 8.02133C16.3854 7.844 16.3388 7.78867 16.2001 7.682C16.1308 7.63733 16.0888 7.552 16.0661 7.69733C16.0554 7.82481 16.0521 7.9528 16.0561 8.08067C16.0561 8.142 16.1181 8.254 16.1721 8.32067ZM10.2381 9.04C10.4061 9.10933 10.5134 8.78933 10.5828 8.43867C10.6294 8.34 10.6654 8.32933 10.6894 8.38C10.6834 8.84667 10.7228 8.95 10.8428 9.092C11.1101 9.29867 11.3314 9.118 11.3494 9.10067L11.5574 8.89267C11.6034 8.844 11.6654 8.84067 11.7308 8.884C11.7948 8.94133 11.7861 9.04133 11.9221 9.11067C12.0368 9.15667 12.2821 9.12133 12.3388 9.02267C12.4154 8.892 12.4341 8.84667 12.4688 8.79733C12.5234 8.72467 12.6168 8.75733 12.6168 8.78C12.6081 8.82067 12.5534 8.86133 12.5908 8.934C12.6561 8.98267 12.6708 8.95133 12.7094 8.94067C12.8454 8.87533 12.9468 8.58067 12.9468 8.58067C12.9528 8.47067 12.8914 8.48 12.8514 8.50267C12.7994 8.534 12.7961 8.54467 12.7441 8.57667C12.6774 8.58667 12.5488 8.63067 12.4854 8.532C12.4201 8.41333 12.4188 8.248 12.3694 8.12867C12.3694 8.12 12.2828 7.94 12.3634 7.92867C12.4041 7.936 12.4901 7.95867 12.5041 7.88667C12.5461 7.816 12.4128 7.61467 12.3221 7.51267C12.2428 7.426 12.1328 7.41533 12.0268 7.504C11.9521 7.57267 11.9628 7.64867 11.9481 7.72133C11.9356 7.77259 11.9354 7.82609 11.9475 7.87743C11.9597 7.92877 11.9839 7.97649 12.0181 8.01667C12.0921 8.16267 12.2274 8.35133 12.1828 8.61533C12.1828 8.61533 12.1041 8.74067 11.9661 8.72467C11.9088 8.712 11.8154 8.68733 11.7661 8.32067C11.7288 8.04267 11.7754 7.654 11.6574 7.472C11.6148 7.362 11.5841 7.256 11.4801 7.444C11.4521 7.518 11.3321 7.63 11.4194 7.86133C11.4908 8.00733 11.5194 8.24533 11.4874 8.51067C11.4381 8.586 11.4274 8.61133 11.3628 8.68667C11.2721 8.784 11.1741 8.75933 11.0988 8.72267C11.0281 8.67533 10.9734 8.65067 10.9414 8.5C10.9474 8.26 10.9608 7.86667 10.9168 7.78333C10.8521 7.654 10.7454 7.70067 10.6994 7.74C10.4801 7.94067 10.3721 8.27867 10.3061 8.54733C10.2454 8.74333 10.1808 8.68733 10.1354 8.608C10.0248 8.504 10.0174 7.69267 9.88343 7.82667C9.6681 8.436 10.0048 9.10533 10.2381 9.04Z" fill="white"/>
<path d="M13.4256 10.3493L13.3616 10.3127L12.1076 10.3067C12.0429 10.282 12.0622 10.2607 12.1076 10.2433C12.4069 10.2027 12.9396 10.116 12.9749 9.60466C12.9689 9.33866 12.8602 9.16399 12.5336 9.11599C12.2942 9.13466 12.1229 9.36733 12.1502 9.62266C12.1389 9.69199 12.1729 9.82666 12.1029 9.84199C11.6422 9.88399 11.1402 10.172 11.1236 10.3787C11.0956 10.398 11.0329 10.342 11.0409 10.254C11.0186 9.87759 10.9102 9.51132 10.7242 9.18333C10.5789 9.03799 10.6242 9.08599 10.5269 9.15466C10.4642 9.22666 10.4529 9.27599 10.4562 9.41933C10.4562 9.42466 10.5736 9.75199 10.6729 9.98133C10.7389 10.2167 10.8009 10.4853 10.7562 10.7393C10.6016 11.0753 10.2902 11.3767 9.99024 11.54C9.83557 11.59 9.70291 11.572 9.67024 11.5373C9.57491 11.4733 9.57957 11.3553 9.58691 11.3533C9.83957 11.1767 10.1289 11.0347 10.3556 10.5593C10.4222 10.378 10.4422 10.268 10.3762 9.98733C10.3584 9.88826 10.3128 9.79627 10.2449 9.72199C10.2856 9.69533 10.4022 9.78399 10.4202 9.73133C10.3865 9.57766 10.31 9.43667 10.1996 9.32466C10.1096 9.24266 10.0116 9.23333 9.92891 9.30866C9.83557 9.36066 9.81557 9.54599 9.86024 9.70866C9.90957 9.83133 10.0436 9.85199 10.1396 10.098C10.1396 10.1033 10.1742 10.282 10.1249 10.352C10.0856 10.4747 9.57557 10.8753 9.54757 10.8933C9.53357 10.9107 9.53957 10.8847 9.53757 10.818C9.53424 10.7367 9.57024 10.5447 9.56024 10.5433C9.39424 10.6507 9.33891 10.9793 9.30891 11.0767C8.88891 11.3667 8.41357 11.5827 8.13891 11.8773C7.99557 12.1007 9.12424 11.6207 9.25557 11.5627C9.28491 11.584 9.28157 11.6847 9.36024 11.7747C9.47757 11.9333 9.72557 12.0313 9.96891 11.9707C10.3756 11.8233 10.6109 11.546 10.8496 11.2387C10.8836 11.1887 10.9369 11.1507 10.9862 11.1887C11.1502 11.556 11.6242 11.816 12.2356 11.8433C12.3776 11.6707 12.3089 11.5873 12.2516 11.5513C12.2516 11.546 11.9496 11.4313 11.9036 11.3167C11.8756 11.2127 11.9436 11.1213 12.0796 11.052C12.4722 11.0047 12.8582 10.952 13.2322 10.832C13.2362 10.7067 13.3089 10.5187 13.3589 10.4373C13.4069 10.3547 13.4329 10.3793 13.4256 10.3493ZM12.3942 9.56799C12.4129 9.53666 12.4749 9.53799 12.5329 9.57199C12.5909 9.60599 12.6236 9.65866 12.6042 9.68999C12.5856 9.72199 12.5229 9.71999 12.4649 9.68599C12.4069 9.65199 12.3756 9.59999 12.3942 9.56799ZM11.8896 10.8347C11.7549 10.8807 11.6256 10.9167 11.6256 11.1113C11.6756 11.382 11.5569 11.2893 11.4869 11.252C11.4042 11.1927 11.1716 11.0493 11.1382 10.74C11.1329 10.666 11.1909 10.604 11.2836 10.604C11.4229 10.642 11.6289 10.6447 11.8076 10.6633C11.9536 10.6727 12.0262 10.7873 11.8896 10.8347ZM7.24491 7.83133C7.38891 7.90066 7.66091 7.87133 7.64891 7.63799C7.64891 7.61733 7.64357 7.54799 7.64157 7.52933C7.61224 7.46066 7.53224 7.47733 7.51357 7.54866C7.50757 7.57199 7.52357 7.60933 7.50291 7.62133C7.49091 7.63333 7.44491 7.62599 7.44691 7.56199C7.44691 7.54133 7.43157 7.51933 7.42291 7.50666C7.41357 7.50066 7.40824 7.49866 7.39157 7.49866C7.37157 7.49933 7.37157 7.50466 7.36091 7.52199C7.35624 7.53866 7.34957 7.55599 7.34957 7.57533C7.34691 7.59799 7.33824 7.60599 7.32157 7.60999C7.30291 7.60999 7.30691 7.61199 7.29224 7.60199C7.28291 7.59199 7.27157 7.58799 7.27157 7.57133C7.27127 7.55186 7.26812 7.53255 7.26224 7.51399C7.2538 7.50422 7.24202 7.49777 7.22691 7.49466C7.14824 7.49466 7.14291 7.58466 7.14757 7.61933C7.14024 7.62533 7.13757 7.78666 7.24491 7.83133Z" fill="white"/>
<path d="M11.6754 9.35133C11.6754 9.33066 11.6601 9.30933 11.6514 9.296C11.6421 9.29 11.6368 9.288 11.6201 9.288C11.6001 9.28866 11.6008 9.294 11.5894 9.31133C11.5848 9.32866 11.5781 9.34533 11.5781 9.36466C11.5761 9.388 11.5668 9.396 11.5501 9.39933C11.5314 9.39933 11.5354 9.40133 11.5201 9.392C11.5108 9.382 11.4994 9.378 11.4994 9.36133C11.4991 9.34187 11.496 9.32255 11.4901 9.304C11.4816 9.29422 11.4699 9.288 11.4548 9.28533C11.3761 9.28533 11.3708 9.37533 11.3748 9.40933C11.3688 9.416 11.3654 9.57666 11.4728 9.622C11.6174 9.69066 11.9608 9.65066 11.8768 9.42866C11.8753 9.39216 11.8729 9.3557 11.8694 9.31933C11.8401 9.25066 11.7594 9.268 11.7414 9.33866C11.7361 9.362 11.7521 9.39933 11.7308 9.41133C11.7201 9.42333 11.6734 9.416 11.6754 9.35133ZM13.9401 8.88C14.0841 8.94933 14.3554 8.92 14.3434 8.68733C14.342 8.65083 14.3395 8.61437 14.3361 8.578C14.3068 8.50933 14.2268 8.52666 14.2088 8.59733C14.2028 8.62066 14.2188 8.658 14.1974 8.67C14.1854 8.682 14.1394 8.67533 14.1414 8.61066C14.1414 8.59 14.1261 8.568 14.1174 8.55533C14.1081 8.54933 14.1028 8.54733 14.0854 8.54733C14.0654 8.54866 14.0661 8.55333 14.0548 8.57066C14.0501 8.588 14.0434 8.60466 14.0434 8.624C14.0408 8.64733 14.0321 8.65533 14.0154 8.65866C13.9968 8.65866 14.0008 8.66066 13.9854 8.65133C13.9761 8.64133 13.9654 8.63733 13.9654 8.62066C13.9652 8.60098 13.962 8.58143 13.9561 8.56266C13.9472 8.55289 13.9352 8.54666 13.9201 8.544C13.8414 8.544 13.8361 8.634 13.8408 8.668C13.8361 8.67466 13.8328 8.83533 13.9401 8.88ZM14.0374 7.97866C14.0888 8.12266 13.9981 8.26 14.0521 8.28C14.1008 8.30266 14.1701 8.13133 14.1954 7.97333C14.2254 7.84533 14.1341 7.58333 14.0048 7.52933C13.9261 7.51066 13.8141 7.55733 13.8501 7.66266C13.8321 7.71333 14.0088 7.88533 14.0374 7.97866ZM15.3674 11.3547C15.4681 11.3553 15.5841 11.1247 15.6334 10.896C15.6608 10.5813 15.6148 10.39 15.6068 10.2047C15.5988 10.0193 15.3981 8.61 15.3568 8.47C15.3081 8.20533 15.5521 8.43466 15.5254 8.28066C15.4408 8.08666 15.2308 7.80466 15.1641 7.636C15.1241 7.564 15.1414 7.5 15.0521 7.61733C14.9701 7.88733 14.9414 8.10733 14.9728 8.27533C15.1848 9.382 15.4021 10.302 15.3674 11.3547ZM17.8714 8.46133C17.8948 8.53333 17.8361 8.766 17.8848 8.78733C17.9294 8.81133 17.9921 8.62666 18.0154 8.45533C18.0281 8.36133 17.9594 8.03333 17.8414 7.97466C17.7694 7.95466 17.6674 8.00466 17.7008 8.11933C17.6841 8.17466 17.8454 8.36 17.8714 8.46133ZM9.12543 10.8987C9.16876 10.9167 9.22809 10.7807 9.25076 10.6547C9.26343 10.5853 9.19676 10.3447 9.08409 10.3013C9.01476 10.2867 8.92009 10.3053 8.94943 10.408C8.94609 10.4633 9.10276 10.53 9.11209 10.6587C9.13476 10.712 9.07876 10.8833 9.12543 10.8987ZM6.08809 7.822C6.11009 7.87733 6.06609 8.054 6.11209 8.07066C6.15409 8.08933 6.21343 7.948 6.23543 7.818C6.24809 7.746 6.23809 7.502 6.07143 7.452C6.00276 7.43666 5.90743 7.47466 5.93876 7.562C5.92276 7.60333 6.06343 7.74466 6.08809 7.822ZM9.35609 8.604C9.22876 8.67333 9.17876 8.87866 9.25876 8.998C9.33276 9.104 9.45009 9.06466 9.46609 9.06466C9.59143 9.08 9.66543 8.83 9.66543 8.83C9.66543 8.83 9.66943 8.76 9.52076 8.89266C9.45809 8.90466 9.45009 8.88133 9.43476 8.84533C9.41978 8.78007 9.42657 8.7117 9.45409 8.65066C9.47543 8.58866 9.42743 8.56133 9.35609 8.604ZM10.3174 7.83533C10.3379 7.82254 10.3555 7.80561 10.369 7.78564C10.3826 7.76566 10.3918 7.74308 10.3961 7.71933C10.4154 7.622 10.2928 7.76533 10.2774 7.65666C10.2501 7.556 10.3288 7.51466 10.4034 7.41733C10.4061 7.35 10.4048 7.30266 10.3134 7.35733C10.2494 7.40066 10.1214 7.53266 10.1174 7.68466C10.1134 7.77066 10.0974 7.77 10.1541 7.82466C10.1948 7.884 10.2354 7.878 10.3174 7.83533ZM11.1834 7.88733C11.2661 7.66333 11.2661 7.56866 11.2721 7.47333C11.2468 7.32866 11.1488 7.33333 11.0841 7.494C11.0561 7.55466 11.0234 7.874 11.0288 7.874C11.0068 7.96933 11.1281 8.01 11.1834 7.88733ZM16.6301 9.476C16.6301 9.476 15.9614 9.95133 15.9454 9.968C15.8788 10.0267 15.9121 10.2347 15.9454 10.2107C15.9928 10.2293 16.6654 9.77266 16.6521 9.71933C16.6834 9.72066 16.6988 9.452 16.6301 9.476ZM16.5481 10.7653C16.5928 10.7893 16.7108 10.6433 16.7061 10.4613C16.7194 10.3673 16.6721 10.0227 16.5548 9.964C16.4828 9.944 16.3868 10.0053 16.4201 10.1193C16.4034 10.174 16.5028 10.3653 16.5288 10.4667C16.5521 10.5393 16.4994 10.744 16.5481 10.7653ZM12.7614 11.7627C12.7614 11.7687 12.8181 11.8173 12.8848 11.7787C13.0248 11.7247 13.1128 11.6727 13.3088 11.6293C13.3601 11.6287 13.3568 11.4907 13.2754 11.486C13.1694 11.4913 13.0708 11.4967 12.9648 11.5807C12.8994 11.5953 12.8888 11.556 12.8741 11.52C12.8581 11.4313 12.9108 11.37 12.8994 11.304C12.9034 11.308 12.8388 11.2487 12.7728 11.282C12.7694 11.282 12.6254 11.3793 12.5794 11.4473C12.5508 11.4693 12.5541 11.488 12.5628 11.5247C12.5848 11.5753 12.6241 11.56 12.6681 11.536C12.7268 11.528 12.7548 11.5667 12.7501 11.6367C12.7221 11.7253 12.7614 11.758 12.7614 11.7627ZM17.1288 11.8733C17.1068 11.9113 17.0921 11.9687 17.1601 11.9867C17.2854 12.022 17.5741 11.834 17.5741 11.8307C17.6208 11.7953 17.6054 11.7293 17.6014 11.7293C17.5741 11.698 17.5128 11.716 17.4714 11.7113C17.4521 11.7113 17.3868 11.7013 17.4181 11.644C17.4401 11.6131 17.4576 11.5792 17.4701 11.5433C17.4894 11.5 17.4728 11.4713 17.4021 11.448C17.3308 11.4347 17.3021 11.4413 17.2228 11.448C17.1801 11.4573 17.1654 11.476 17.1574 11.528C17.1608 11.6067 17.2081 11.6027 17.2574 11.634C17.2861 11.6707 17.3048 11.704 17.2554 11.7633C17.2088 11.8067 17.1761 11.8307 17.1288 11.8733ZM17.0008 15.3333H16.0008V15C16.0008 14.9116 15.9656 14.8268 15.9031 14.7643C15.8406 14.7018 15.7558 14.6667 15.6674 14.6667C15.579 14.6667 15.4942 14.7018 15.4317 14.7643C15.3692 14.8268 15.3341 14.9116 15.3341 15V15.3333H7.33409C7.33409 15.3333 7.33409 16 9.33409 16H15.3341V16.3333C15.3341 16.4217 15.3692 16.5065 15.4317 16.569C15.4942 16.6315 15.579 16.6667 15.6674 16.6667C15.7558 16.6667 15.8406 16.6315 15.9031 16.569C15.9656 16.5065 16.0008 16.4217 16.0008 16.3333V16H16.6674V16.3333C16.6674 16.4217 16.7025 16.5065 16.7651 16.569C16.8276 16.6315 16.9124 16.6667 17.0008 16.6667C17.0892 16.6667 17.174 16.6315 17.2365 16.569C17.299 16.5065 17.3341 16.4217 17.3341 16.3333V15.6667C17.3341 15.5783 17.299 15.4935 17.2365 15.431C17.174 15.3685 17.0892 15.3333 17.0008 15.3333Z" fill="white"/>
</svg>
