<svg width="26" height="20" viewBox="0 0 26 20" fill="none" xmlns="http://www.w3.org/2000/svg">
<path d="M15.8656 0.751168H9.55159C8.78832 0.750861 8.03246 0.900953 7.32721 1.19287C6.62197 1.48478 5.98115 1.9128 5.44138 2.45246C4.90161 2.99213 4.47346 3.63286 4.18141 4.33805C3.88935 5.04323 3.7391 5.79906 3.73926 6.56233V12.8763C3.73895 13.6397 3.88908 14.3957 4.18107 15.101C4.47306 15.8063 4.90118 16.4472 5.44097 16.987C5.98075 17.5267 6.62162 17.9549 7.32695 18.2469C8.03227 18.5388 8.78822 18.689 9.55159 18.6887H15.8656C16.629 18.689 17.3849 18.5388 18.0902 18.2469C18.7956 17.9549 19.4364 17.5267 19.9762 16.987C20.516 16.4472 20.9441 15.8063 21.2361 15.101C21.5281 14.3957 21.6782 13.6397 21.6779 12.8763V6.56233C21.6782 5.79896 21.5281 5.04301 21.2361 4.33769C20.9441 3.63236 20.516 2.9915 19.9762 2.45171C19.4364 1.91192 18.7956 1.4838 18.0902 1.19181C17.3849 0.899825 16.629 0.749694 15.8656 0.75V0.751168Z" stroke="white" stroke-width="1.5"/>
<path d="M21.582 13.9053H23.4708C23.788 13.9053 24.0922 13.7793 24.3164 13.5551C24.5407 13.3308 24.6667 13.0267 24.6667 12.7095V6.73033C24.6667 6.41318 24.5407 6.10901 24.3164 5.88475C24.0922 5.66049 23.788 5.5345 23.4708 5.5345H21.5808M3.83583 13.9053H1.94583C1.78879 13.9053 1.63329 13.8744 1.48821 13.8143C1.34312 13.7542 1.21129 13.6661 1.10025 13.5551C0.989208 13.444 0.901124 13.3122 0.841027 13.1671C0.780931 13.022 0.75 12.8665 0.75 12.7095V6.73033C0.75 6.41318 0.875989 6.10901 1.10025 5.88475C1.32451 5.66049 1.62868 5.5345 1.94583 5.5345H3.83583" stroke="white" stroke-width="1.5"/>
<path d="M1.93457 5.53451V0.751175M23.4712 5.53451L23.4596 0.751175M10.3171 13.4958C10.953 14.1271 11.8127 14.4813 12.7087 14.4813C13.6048 14.4813 14.4645 14.1271 15.1004 13.4958M7.90207 8.52351L9.09557 7.32767L10.2914 8.52351M15.0771 8.52351L16.2729 7.32767L17.4676 8.52351" stroke="white" stroke-width="1.5" stroke-linecap="round" stroke-linejoin="round"/>
</svg>
