<svg width="28" height="28" viewBox="0 0 28 28" fill="none" xmlns="http://www.w3.org/2000/svg">
<path d="M16.6249 8.75C16.3929 8.75 16.1703 8.84219 16.0062 9.00628C15.8421 9.17038 15.7499 9.39294 15.7499 9.625C15.7499 9.85706 15.8421 10.0796 16.0062 10.2437C16.1703 10.4078 16.3929 10.5 16.6249 10.5H21.8749C22.107 10.5 22.3296 10.4078 22.4936 10.2437C22.6577 10.0796 22.7499 9.85706 22.7499 9.625C22.7499 9.39294 22.6577 9.17038 22.4936 9.00628C22.3296 8.84219 22.107 8.75 21.8749 8.75H16.6249ZM16.6249 12.25C16.3929 12.25 16.1703 12.3422 16.0062 12.5063C15.8421 12.6704 15.7499 12.8929 15.7499 13.125C15.7499 13.3571 15.8421 13.5796 16.0062 13.7437C16.1703 13.9078 16.3929 14 16.6249 14H21.8749C22.107 14 22.3296 13.9078 22.4936 13.7437C22.6577 13.5796 22.7499 13.3571 22.7499 13.125C22.7499 12.8929 22.6577 12.6704 22.4936 12.5063C22.3296 12.3422 22.107 12.25 21.8749 12.25H16.6249ZM15.7499 16.625C15.7499 16.3929 15.8421 16.1704 16.0062 16.0063C16.1703 15.8422 16.3929 15.75 16.6249 15.75H20.1249C20.357 15.75 20.5796 15.8422 20.7436 16.0063C20.9077 16.1704 20.9999 16.3929 20.9999 16.625C20.9999 16.8571 20.9077 17.0796 20.7436 17.2437C20.5796 17.4078 20.357 17.5 20.1249 17.5H16.6249C16.3929 17.5 16.1703 17.4078 16.0062 17.2437C15.8421 17.0796 15.7499 16.8571 15.7499 16.625ZM11.5674 11.375C11.5674 12.824 10.3092 14 8.74993 14C7.19068 14 5.93243 12.824 5.93243 11.375C5.93243 9.926 7.19068 8.75 8.74993 8.75C10.3092 8.75 11.5674 9.926 11.5674 11.375ZM8.74993 14H8.67993C7.06993 14 5.66993 15.0237 5.28493 16.485C5.14493 17.0012 5.56493 17.5035 6.13368 17.5035H11.3837C11.9542 17.5035 12.3724 17.003 12.2342 16.485C11.8439 15.0255 10.4492 14 8.83918 14H8.76918H8.74993Z" fill="white"/>
<path fill-rule="evenodd" clip-rule="evenodd" d="M0.57225 6.37C0 7.4935 0 8.96 0 11.9V16.1C0 19.04 0 20.51 0.57225 21.63C1.07737 22.6155 1.87928 23.4174 2.86475 23.9225C3.98825 24.4948 5.45475 24.4947 8.39475 24.4947H19.5948C22.5347 24.4947 24.0048 24.4948 25.1248 23.9225C26.1116 23.4193 26.9141 22.6169 27.4173 21.63C27.9895 20.5065 27.9895 19.04 27.9895 16.1V11.9C27.9895 8.96 27.9895 7.49 27.4173 6.37C26.9141 5.38311 26.1116 4.58067 25.1248 4.0775C24.0013 3.50525 22.5347 3.50525 19.5948 3.50525H8.39475C5.45475 3.50525 3.98475 3.50525 2.86475 4.0775C1.87928 4.58262 1.07737 5.38453 0.57225 6.37ZM19.6473 5.2535H8.44725C6.9475 5.2535 5.92725 5.2535 5.13975 5.32C4.37325 5.38125 3.9795 5.495 3.7065 5.635C3.04796 5.97055 2.51255 6.50596 2.177 7.1645C2.037 7.4375 1.92325 7.8295 1.862 8.59775C1.79725 9.38525 1.7955 10.4002 1.7955 11.9052V16.1052C1.7955 17.605 1.79725 18.6253 1.862 19.4128C1.925 20.1793 2.03875 20.573 2.177 20.846C2.513 21.504 3.0485 22.0395 3.7065 22.3755C3.9795 22.5155 4.37325 22.6292 5.13975 22.6905C5.92725 22.7535 6.94225 22.7553 8.44725 22.7553H19.6473C21.147 22.7553 22.1673 22.7552 22.9548 22.6905C23.7213 22.6275 24.115 22.5138 24.388 22.3755C25.046 22.0395 25.5815 21.504 25.9175 20.846C26.0575 20.573 26.1713 20.1792 26.2325 19.411C26.2973 18.6235 26.299 17.6085 26.299 16.1035V11.9035C26.299 10.4055 26.2973 9.3835 26.2325 8.596C26.1695 7.83125 26.0558 7.4375 25.9175 7.1645C25.582 6.50596 25.0465 5.97055 24.388 5.635C24.115 5.495 23.7213 5.38125 22.9548 5.32C22.1673 5.25525 21.1523 5.2535 19.6473 5.2535Z" fill="white"/>
</svg>
