<svg width="28" height="28" viewBox="0 0 28 28" fill="none" xmlns="http://www.w3.org/2000/svg">
<g clip-path="url(#clip0_1_504)">
<path d="M2.85144 13.184C2.31628 12.6488 2.01562 11.923 2.01562 11.1662C2.01562 10.4093 2.31628 9.68349 2.85144 9.14832C3.38661 8.61315 4.11245 8.3125 4.86929 8.3125C5.62613 8.3125 6.35197 8.61315 6.88714 9.14832C7.4223 9.68349 7.72296 10.4093 7.72296 11.1662C7.72296 11.923 7.4223 12.6488 6.88714 13.184C6.35197 13.7192 5.62613 14.0198 4.86929 14.0198C4.11245 14.0198 3.38661 13.7192 2.85144 13.184Z" stroke="white" stroke-width="1.5" stroke-linecap="round" stroke-linejoin="round"/>
<path d="M20.4935 12.2582C20.3501 11.912 20.2763 11.5409 20.2763 11.1662C20.2763 10.4093 20.5769 9.68349 21.1121 9.14832C21.6473 8.61315 22.3731 8.3125 23.13 8.3125C23.8868 8.3125 24.6126 8.61315 25.1478 9.14832C25.683 9.68349 25.9836 10.4093 25.9836 11.1662C25.9836 11.5409 25.9098 11.912 25.7664 12.2582C25.623 12.6044 25.4128 12.919 25.1478 13.184C24.8828 13.449 24.5682 13.6592 24.222 13.8026C23.8758 13.946 23.5047 14.0198 23.13 14.0198C22.7552 14.0198 22.3841 13.946 22.0379 13.8026C21.6917 13.6592 21.3771 13.449 21.1121 13.184C20.8471 12.919 20.6369 12.6044 20.4935 12.2582Z" stroke="white" stroke-width="1.5" stroke-linecap="round" stroke-linejoin="round"/>
<path d="M19.1332 26.9791V19.1228C17.6999 18.9902 16.3362 18.443 15.2089 17.5479C14.0816 16.6528 13.2394 15.4488 12.7854 14.0828L11.803 11.137C11.7247 10.9007 11.6987 10.6501 11.7269 10.4028C11.7551 10.1554 11.8368 9.91714 11.9663 9.70454C12.0959 9.49194 12.2702 9.3101 12.4771 9.17165C12.684 9.0332 12.9186 8.94145 13.1645 8.9028C13.5786 8.85092 13.9977 8.94672 14.3481 9.17334C14.6985 9.39997 14.9577 9.74289 15.0802 10.1418L16.0345 13.0036C16.2996 13.7985 16.8082 14.4897 17.4881 14.9792C18.168 15.4688 18.9849 15.732 19.8227 15.7313H24.8394C25.1392 15.7311 25.4361 15.79 25.7132 15.9046C25.9903 16.0192 26.242 16.1873 26.4542 16.3992C26.6663 16.6111 26.8346 16.8627 26.9495 17.1397C27.0643 17.4166 27.1236 17.7135 27.1237 18.0133V26.985" stroke="white" stroke-width="1.5" stroke-linecap="round" stroke-linejoin="round"/>
<path d="M12.1952 12.306L11.9618 12.999C11.6972 13.7958 11.1879 14.4888 10.5065 14.9794C9.82509 15.47 9.00629 15.7331 8.16667 15.7313H3.15583C2.55162 15.7316 1.97219 15.9715 1.54462 16.3985C1.11705 16.8254 0.876236 17.4044 0.875 18.0086V26.9791M8.86667 26.9791V19.1228C9.86671 19.0301 10.8375 18.735 11.7199 18.2555C12.6024 17.7759 13.3781 17.122 14 16.3333M13.4167 1.02081V3.35415M17.983 3.45331L16.3333 5.10531M8.85033 3.45331L10.5 5.10531" stroke="white" stroke-width="1.5" stroke-linecap="round" stroke-linejoin="round"/>
</g>
<defs>
<clipPath id="clip0_1_504">
<rect width="28" height="28" fill="white"/>
</clipPath>
</defs>
</svg>
