<svg width="28" height="28" viewBox="0 0 28 28" fill="none" xmlns="http://www.w3.org/2000/svg">
<path d="M8.19727 16.7656C5.3102 16.8934 3.56022 18.0197 2.51074 19.2441C1.35096 20.5946 1 22.1157 1 22.75V23.5H7.74414L7.75 22.7559C7.76325 21.1634 8.20545 19.6067 9.02539 18.2471L9.32422 18.2432C8.46232 19.6343 8.00269 21.1906 8 22.7363C7.99397 23.0776 8.02615 23.4177 8.09375 23.75H1.75C1.28228 23.75 1.06918 23.6336 0.967773 23.5322C0.866366 23.4308 0.75 23.2177 0.75 22.75C0.75 22.0545 1.12319 20.4776 2.31934 19.082C3.43906 17.7757 5.30782 16.5985 8.36816 16.5078L8.19727 16.7656ZM19.25 16.5C22.538 16.5 24.5151 17.7222 25.6807 19.082C26.8768 20.4776 27.25 22.0545 27.25 22.75C27.25 23.0563 27.1756 23.2361 27.1025 23.3457C27.0264 23.4599 26.9196 23.5455 26.79 23.6104C26.6574 23.6766 26.5153 23.7132 26.4004 23.7324C26.3447 23.7417 26.2994 23.7461 26.2715 23.748C26.2583 23.749 26.2493 23.7499 26.2451 23.75H12.2549C12.2507 23.7499 12.2417 23.749 12.2285 23.748C12.2006 23.7461 12.1553 23.7417 12.0996 23.7324C11.9847 23.7132 11.8426 23.6766 11.71 23.6104C11.5804 23.5455 11.4736 23.4599 11.3975 23.3457C11.3244 23.2361 11.25 23.0563 11.25 22.75C11.25 22.0545 11.6232 20.4776 12.8193 19.082C13.9849 17.7222 15.962 16.5 19.25 16.5ZM19.25 16.75C16.0336 16.75 14.1246 17.9395 13.0107 19.2441C11.8567 20.5871 11.5024 22.1002 11.5 22.7402L11.498 23.3682L12.1162 23.4805L12.1543 23.4883L12.2207 23.5H26.2646L26.3174 23.4922L26.3418 23.4893L26.3799 23.4834L26.418 23.4736L26.4316 23.4707L27.0049 23.3271L27 22.7373C26.9955 22.1422 26.6867 20.7743 25.6963 19.498L25.4893 19.2441C24.3744 17.9423 22.4662 16.75 19.25 16.75ZM9.91309 16.5547H9.91504C10.1344 16.5752 10.3531 16.6053 10.5703 16.6406C10.3985 16.8192 10.2343 17.0027 10.0791 17.1904C9.81535 17.5093 9.57584 17.8415 9.36035 18.1836V16.5146C9.54472 16.5237 9.72931 16.5368 9.91309 16.5547ZM7.875 5.125C9.06847 5.125 10.2127 5.59945 11.0566 6.44336C11.9006 7.28727 12.375 8.43153 12.375 9.625C12.375 10.8185 11.9006 11.9627 11.0566 12.8066C10.2127 13.6506 9.06847 14.125 7.875 14.125C6.68153 14.125 5.53727 13.6506 4.69336 12.8066C3.84945 11.9627 3.375 10.8185 3.375 9.625C3.375 8.43153 3.84945 7.28727 4.69336 6.44336C5.53727 5.59945 6.68153 5.125 7.875 5.125ZM19.25 4.25C20.4435 4.25 21.5877 4.72445 22.4316 5.56836C23.2756 6.41227 23.75 7.55653 23.75 8.75C23.75 9.34086 23.6333 9.92579 23.4072 10.4717C23.1811 11.0176 22.8495 11.5138 22.4316 11.9316C22.0138 12.3495 21.5176 12.6811 20.9717 12.9072C20.4258 13.1333 19.8409 13.25 19.25 13.25C18.6591 13.25 18.0742 13.1333 17.5283 12.9072C16.9824 12.6811 16.4862 12.3495 16.0684 11.9316C15.6505 11.5138 15.3189 11.0176 15.0928 10.4717C14.8667 9.92579 14.75 9.34086 14.75 8.75C14.75 7.55653 15.2244 6.41227 16.0684 5.56836C16.9123 4.72445 18.0565 4.25 19.25 4.25ZM7.875 5.375C6.74783 5.375 5.66715 5.82309 4.87012 6.62012C4.07309 7.41715 3.625 8.49783 3.625 9.625C3.625 10.7522 4.07309 11.8329 4.87012 12.6299C5.66715 13.4269 6.74783 13.875 7.875 13.875C9.00217 13.875 10.0829 13.4269 10.8799 12.6299C11.6769 11.8329 12.125 10.7522 12.125 9.625C12.125 8.49783 11.6769 7.41715 10.8799 6.62012C10.0829 5.82309 9.00217 5.375 7.875 5.375ZM19.25 4.5C18.1228 4.5 17.0421 4.94809 16.2451 5.74512C15.4481 6.54215 15 7.62283 15 8.75C15 9.87717 15.4481 10.9579 16.2451 11.7549C17.0421 12.5519 18.1228 13 19.25 13C20.3772 13 21.4579 12.5519 22.2549 11.7549C23.0519 10.9579 23.5 9.87717 23.5 8.75C23.5 7.62283 23.0519 6.54215 22.2549 5.74512C21.4579 4.94809 20.3772 4.5 19.25 4.5Z" fill="white" stroke="white" stroke-width="1.5"/>
</svg>
