<svg width="28" height="28" viewBox="0 0 28 28" fill="none" xmlns="http://www.w3.org/2000/svg">
<path d="M10.4997 5.83334C10.4997 4.18368 10.4997 3.35884 11.013 2.84668C11.524 2.33334 12.3488 2.33334 13.9997 2.33334C15.6505 2.33334 16.4742 2.33334 16.9863 2.84668C17.4997 3.35768 17.4997 4.18251 17.4997 5.83334C17.4997 7.48418 17.4997 8.30784 16.9863 8.82001C16.4753 9.33334 15.6505 9.33334 13.9997 9.33334C12.3488 9.33334 11.5252 9.33334 11.013 8.82001C10.4997 8.30901 10.4997 7.48418 10.4997 5.83334ZM2.33301 22.1667C2.33301 20.517 2.33301 19.6922 2.84634 19.18C3.35734 18.6667 4.18217 18.6667 5.83301 18.6667C7.48384 18.6667 8.30751 18.6667 8.81967 19.18C9.33301 19.691 9.33301 20.5158 9.33301 22.1667C9.33301 23.8175 9.33301 24.6412 8.81967 25.1533C8.30867 25.6667 7.48384 25.6667 5.83301 25.6667C4.18217 25.6667 3.35851 25.6667 2.84634 25.1533C2.33301 24.6423 2.33301 23.8175 2.33301 22.1667ZM18.6663 22.1667C18.6663 20.517 18.6663 19.6922 19.1797 19.18C19.6907 18.6667 20.5155 18.6667 22.1663 18.6667C23.8172 18.6667 24.6408 18.6667 25.153 19.18C25.6663 19.6922 25.6663 20.517 25.6663 22.1667C25.6663 23.8163 25.6663 24.6412 25.153 25.1533C24.6408 25.6667 23.816 25.6667 22.1663 25.6667C20.5167 25.6667 19.6918 25.6667 19.1797 25.1533C18.6663 24.6423 18.6663 23.8175 18.6663 22.1667Z" stroke="white" stroke-width="1.5"/>
<path d="M13.9997 9.33334V10.5M13.9997 10.5C13.9997 11.5873 13.9997 12.131 14.2073 12.5592C14.4827 13.1308 15.0123 13.5858 15.6797 13.8227C16.1813 14 16.8148 14 18.083 14C19.3512 14 19.9847 14 20.4863 14.1773C21.1525 14.4142 21.6833 14.8692 21.9587 15.4408C22.1663 15.869 22.1663 16.4127 22.1663 17.5V18.6667M13.9997 10.5C13.9997 11.5873 13.9997 12.131 13.792 12.5592C13.5167 13.1308 12.987 13.5858 12.3197 13.8227C11.818 14 11.1845 14 9.91634 14C8.64817 14 8.01467 14 7.51301 14.1773C6.84684 14.4142 6.31601 14.8692 6.04067 15.4408C5.83301 15.869 5.83301 16.4127 5.83301 17.5V18.6667" stroke="white" stroke-width="1.5" stroke-linecap="round" stroke-linejoin="round"/>
</svg>
