<svg width="28" height="28" viewBox="0 0 28 28" fill="none" xmlns="http://www.w3.org/2000/svg">
<path d="M19.8335 12.6058C19.8335 12.2022 19.8335 12.0003 19.8941 11.8207C20.0703 11.298 20.5358 11.0962 21.0025 10.8838C21.5251 10.6447 21.7865 10.5257 22.0466 10.5047C22.3406 10.4813 22.6358 10.5443 22.8878 10.6855C23.2215 10.8722 23.4548 11.2292 23.6928 11.5185C24.793 12.8555 25.3436 13.524 25.5443 14.2602C25.7076 14.8552 25.7076 15.4782 25.5443 16.072C25.2515 17.1477 24.324 18.0483 23.6368 18.8837C23.2856 19.3095 23.1095 19.523 22.8878 19.6478C22.6315 19.79 22.3387 19.8529 22.0466 19.8287C21.7865 19.8077 21.5251 19.6887 21.0013 19.4495C20.5346 19.2372 20.0703 19.0353 19.8941 18.5127C19.8335 18.333 19.8335 18.1312 19.8335 17.7275V12.6058ZM8.1668 12.6058C8.1668 12.0972 8.1528 11.641 7.74214 11.284C7.5928 11.1545 7.39447 11.0647 6.99897 10.8838C6.47514 10.6458 6.2138 10.5257 5.95364 10.5047C5.17547 10.4417 4.75664 10.9737 4.30864 11.5197C3.2073 12.8555 2.65664 13.524 2.4548 14.2613C2.29241 14.8544 2.29241 15.4801 2.4548 16.0732C2.7488 17.1477 3.67747 18.0495 4.36347 18.8837C4.7963 19.4087 5.21047 19.8882 5.95364 19.8287C6.2138 19.8077 6.47514 19.6887 6.99897 19.4495C7.39564 19.2698 7.5928 19.1788 7.74214 19.0493C8.1528 18.6923 8.1668 18.2362 8.1668 17.7287V12.6058Z" stroke="white" stroke-width="1.5"/>
<path d="M5.83301 10.5C5.83301 6.63367 9.48934 3.5 13.9997 3.5C18.51 3.5 22.1663 6.63367 22.1663 10.5" stroke="white" stroke-width="1.5" stroke-linecap="square" stroke-linejoin="round"/>
<path d="M22.167 19.8333V20.7666C22.167 22.8281 20.0787 24.5 17.5003 24.5H15.167" stroke="white" stroke-width="1.5" stroke-linecap="round" stroke-linejoin="round"/>
</svg>
