<svg width="35" height="35" viewBox="0 0 35 35" fill="none" xmlns="http://www.w3.org/2000/svg">
<rect width="35" height="35" rx="17.5" fill="black" fill-opacity="0.01"/>
<path d="M13.3361 21.8303C11.7803 20.2745 9.74635 19.2874 7.56152 19.0277C8.18592 17.9446 9.0762 17.0387 10.1482 16.3955C11.2202 15.7523 12.4385 15.3931 13.688 15.3518C14.4118 13.2944 15.7294 11.4978 17.4742 10.1892C19.219 8.88058 21.3127 8.11874 23.4904 8C24.4653 8 25.4003 8.38728 26.0897 9.07665C26.779 9.76601 27.1663 10.701 27.1663 11.6759C27.0476 13.8537 26.2857 15.9473 24.9771 17.6921C23.6685 19.4369 21.8719 20.7545 19.8145 21.4783C19.7733 22.7278 19.4141 23.9461 18.7708 25.0181C18.1276 26.0901 17.2217 26.9804 16.1386 27.6048C15.879 25.42 14.8918 23.386 13.3361 21.8303Z" stroke="white" stroke-width="1.5" stroke-linecap="round" stroke-linejoin="round"/>
<path d="M11.2375 20.253C9.96226 20.973 8.93108 22.0574 8.27616 23.3672C7.62124 24.6771 7.37242 26.1527 7.56161 27.6048C9.01379 27.794 10.4894 27.5452 11.7992 26.8903C13.1091 26.2354 14.1935 25.2042 14.9134 23.9289M19.8146 14.1265C19.8146 14.4515 19.9437 14.7632 20.1735 14.993C20.4033 15.2228 20.7149 15.3518 21.0399 15.3518C21.3649 15.3518 21.6765 15.2228 21.9063 14.993C22.1361 14.7632 22.2652 14.4515 22.2652 14.1265C22.2652 13.8016 22.1361 13.4899 21.9063 13.2601C21.6765 13.0303 21.3649 12.9012 21.0399 12.9012C20.7149 12.9012 20.4033 13.0303 20.1735 13.2601C19.9437 13.4899 19.8146 13.8016 19.8146 14.1265Z" stroke="white" stroke-width="1.5" stroke-linecap="round" stroke-linejoin="round"/>
</svg>
