<svg width="35" height="35" viewBox="0 0 35 35" fill="none" xmlns="http://www.w3.org/2000/svg">
<path fill-rule="evenodd" clip-rule="evenodd" d="M8.83296 0.583333C11.6174 0.272222 14.5237 0 17.5 0C20.4763 0 23.3826 0.272222 26.167 0.583333C28.2834 0.826001 30.2548 1.77948 31.759 3.28789C33.2631 4.7963 34.2111 6.77039 34.4478 8.88741C34.7459 11.6589 35 14.5444 35 17.5C35 20.4556 34.7459 23.3411 34.4478 26.1126C34.2111 28.2296 33.2631 30.2037 31.759 31.7121C30.2548 33.2205 28.2834 34.174 26.167 34.4167C23.3826 34.7278 20.4763 35 17.5 35C14.5237 35 11.6174 34.7278 8.83296 34.4167C6.71662 34.174 4.7452 33.2205 3.24103 31.7121C1.73686 30.2037 0.788934 28.2296 0.552222 26.1126C0.254074 23.3411 0 20.4556 0 17.5C0 14.5444 0.254074 11.6589 0.552222 8.88741C0.788934 6.77039 1.73686 4.7963 3.24103 3.28789C4.7452 1.77948 6.71662 0.826001 8.83296 0.583333ZM20.9533 6.8237C20.8638 6.43578 20.6346 6.09438 20.3095 5.86465C19.9844 5.63491 19.586 5.5329 19.1905 5.5781C18.795 5.6233 18.4299 5.81252 18.165 6.10969C17.9 6.40685 17.7538 6.79114 17.7541 7.18926V22.1667C17.7541 22.9625 17.5181 23.7404 17.076 24.4021C16.6338 25.0638 16.0054 25.5795 15.2702 25.8841C14.5349 26.1886 13.7259 26.2683 12.9454 26.1131C12.1649 25.9578 11.4479 25.5746 10.8852 25.0119C10.3225 24.4491 9.93924 23.7322 9.78398 22.9517C9.62873 22.1711 9.70841 21.3621 10.013 20.6269C10.3175 19.8916 10.8332 19.2632 11.4949 18.8211C12.1566 18.3789 12.9346 18.143 13.7304 18.143C14.1601 18.143 14.5723 17.9722 14.8761 17.6684C15.18 17.3645 15.3507 16.9523 15.3507 16.5226C15.3507 16.0928 15.18 15.6807 14.8761 15.3768C14.5723 15.0729 14.1601 14.9022 13.7304 14.9022C12.2936 14.9022 10.8891 15.3283 9.69446 16.1265C8.49983 16.9247 7.56873 18.0593 7.0189 19.3867C6.46907 20.7141 6.32521 22.1747 6.60551 23.5839C6.88581 24.9931 7.57768 26.2875 8.59363 27.3034C9.60958 28.3194 10.904 29.0112 12.3131 29.2915C13.7223 29.5718 15.1829 29.428 16.5104 28.8781C17.8378 28.3283 18.9723 27.3972 19.7705 26.2026C20.5688 25.0079 20.9948 23.6034 20.9948 22.1667V13.1185C22.5504 14.4407 24.557 15.1667 26.9111 15.1667C27.3409 15.1667 27.753 14.9959 28.0569 14.6921C28.3608 14.3882 28.5315 13.976 28.5315 13.5463C28.5315 13.1165 28.3608 12.7044 28.0569 12.4005C27.753 12.0966 27.3409 11.9259 26.9111 11.9259C25.2 11.9259 23.9296 11.397 22.9937 10.5648C22.0396 9.71444 21.3319 8.44926 20.9533 6.8237Z" fill="url(#paint0_linear_130_1635)"/>
<defs>
<linearGradient id="paint0_linear_130_1635" x1="35" y1="35" x2="-15.513" y2="16.8995" gradientUnits="userSpaceOnUse">
<stop stop-color="#00B3F8"/>
<stop offset="0.25" stop-color="#0B9ADE"/>
<stop offset="0.5" stop-color="#0F82C3"/>
<stop offset="1" stop-color="#063F75"/>
</linearGradient>
</defs>
</svg>
