<svg width="36" height="36" viewBox="0 0 36 36" fill="none" xmlns="http://www.w3.org/2000/svg">
<mask id="mask0_130_1626" style="mask-type:luminance" maskUnits="userSpaceOnUse" x="0" y="0" width="36" height="36">
<path fill-rule="evenodd" clip-rule="evenodd" d="M0.179166 34.6348C0.145406 34.7563 0.144281 34.8845 0.175907 35.0065C0.207533 35.1285 0.27079 35.2401 0.359293 35.3298C0.447797 35.4196 0.558416 35.4845 0.679986 35.5178C0.801557 35.5512 0.929778 35.5519 1.05171 35.5199L9.30592 33.3627C11.9248 34.7812 14.8559 35.5244 17.8343 35.5252H17.8414C27.6705 35.5252 35.6828 27.5595 35.6828 17.7662C35.6889 15.4309 35.2304 13.1177 34.3341 10.9612C33.4378 8.80465 32.1215 6.84793 30.4619 5.20487C28.8052 3.54832 26.8372 2.23568 24.6713 1.34244C22.5054 0.449207 20.1843 -0.0069939 17.8414 8.10458e-05C8.01233 8.10458e-05 0 7.96583 0 17.7573C0 20.873 0.820583 23.9332 2.38292 26.6332L0.179166 34.6348ZM12.1869 9.263C12.5148 9.27196 12.8785 9.28987 13.2243 10.0567C13.4536 10.5673 13.8388 11.508 14.1542 12.2748C14.3996 12.8714 14.6003 13.3623 14.6505 13.4627C14.7669 13.692 14.8368 13.9554 14.6863 14.2653L14.6361 14.3692C14.5143 14.6201 14.4283 14.7992 14.224 15.0322L13.9678 15.3367C13.8155 15.5231 13.6632 15.7058 13.5342 15.8348C13.3031 16.0642 13.0648 16.3114 13.33 16.7701C13.5952 17.2287 14.5268 18.7373 15.901 19.9539C16.9061 20.8604 18.0594 21.5876 19.3106 22.1039C19.436 22.1576 19.5375 22.203 19.6152 22.24C20.0756 22.4694 20.3498 22.4335 20.6149 22.1254C20.8819 21.8154 21.767 20.7834 22.0787 20.3247C22.3797 19.8661 22.6879 19.9377 23.1143 20.0954C23.5407 20.2549 25.809 21.3675 26.2694 21.595L26.5256 21.7205C26.8463 21.8727 27.0631 21.9785 27.1563 22.1325C27.271 22.3278 27.271 23.2434 26.8911 24.322C26.5005 25.397 24.6211 26.429 23.77 26.5078L23.5282 26.5365C22.747 26.6296 21.758 26.7515 18.232 25.3629C13.8854 23.6537 11.017 19.4146 10.4382 18.5564L10.3433 18.4202L10.3343 18.4059C10.0692 18.0529 8.45487 15.894 8.45487 13.6651C8.45487 11.533 9.50658 10.4222 9.98496 9.91696L10.0692 9.82737C10.224 9.65246 10.4132 9.51129 10.625 9.41265C10.8367 9.31401 11.0665 9.26002 11.3 9.25404C11.61 9.25404 11.9217 9.25404 12.1869 9.263Z" fill="white"/>
</mask>
<g mask="url(#mask0_130_1626)">
<path fill-rule="evenodd" clip-rule="evenodd" d="M0.179166 34.6348C0.145406 34.7563 0.144281 34.8845 0.175907 35.0065C0.207533 35.1285 0.27079 35.2401 0.359293 35.3298C0.447797 35.4196 0.558416 35.4845 0.679986 35.5178C0.801557 35.5512 0.929778 35.5519 1.05171 35.5199L9.30592 33.3627C11.9248 34.7812 14.8559 35.5244 17.8343 35.5252H17.8414C27.6705 35.5252 35.6828 27.5595 35.6828 17.7662C35.6889 15.4309 35.2304 13.1177 34.3341 10.9612C33.4378 8.80465 32.1215 6.84793 30.4619 5.20487C28.8052 3.54832 26.8372 2.23568 24.6713 1.34244C22.5054 0.449207 20.1843 -0.0069939 17.8414 8.10458e-05C8.01233 8.10458e-05 0 7.96583 0 17.7573C0 20.873 0.820583 23.9332 2.38292 26.6332L0.179166 34.6348ZM12.1869 9.263C12.5148 9.27196 12.8785 9.28987 13.2243 10.0567C13.4536 10.5673 13.8388 11.508 14.1542 12.2748C14.3996 12.8714 14.6003 13.3623 14.6505 13.4627C14.7669 13.692 14.8368 13.9554 14.6863 14.2653L14.6361 14.3692C14.5143 14.6201 14.4283 14.7992 14.224 15.0322L13.9678 15.3367C13.8155 15.5231 13.6632 15.7058 13.5342 15.8348C13.3031 16.0642 13.0648 16.3114 13.33 16.7701C13.5952 17.2287 14.5268 18.7373 15.901 19.9539C16.9061 20.8604 18.0594 21.5876 19.3106 22.1039C19.436 22.1576 19.5375 22.203 19.6152 22.24C20.0756 22.4694 20.3498 22.4335 20.6149 22.1254C20.8819 21.8154 21.767 20.7834 22.0787 20.3247C22.3797 19.8661 22.6879 19.9377 23.1143 20.0954C23.5407 20.2549 25.809 21.3675 26.2694 21.595L26.5256 21.7205C26.8463 21.8727 27.0631 21.9785 27.1563 22.1325C27.271 22.3278 27.271 23.2434 26.8911 24.322C26.5005 25.397 24.6211 26.429 23.77 26.5078L23.5282 26.5365C22.747 26.6296 21.758 26.7515 18.232 25.3629C13.8854 23.6537 11.017 19.4146 10.4382 18.5564L10.3433 18.4202L10.3343 18.4059C10.0692 18.0529 8.45487 15.894 8.45487 13.6651C8.45487 11.533 9.50658 10.4222 9.98496 9.91696L10.0692 9.82737C10.224 9.65246 10.4132 9.51129 10.625 9.41265C10.8367 9.31401 11.0665 9.26002 11.3 9.25404C11.61 9.25404 11.9217 9.25404 12.1869 9.263Z" fill="url(#paint0_linear_130_1626)" stroke="url(#paint1_linear_130_1626)" stroke-width="2" stroke-linejoin="round"/>
</g>
<defs>
<linearGradient id="paint0_linear_130_1626" x1="35.6829" y1="35.5434" x2="-15.7696" y2="17.0339" gradientUnits="userSpaceOnUse">
<stop stop-color="#00B3F8"/>
<stop offset="0.25" stop-color="#0B9ADE"/>
<stop offset="0.5" stop-color="#0F82C3"/>
<stop offset="1" stop-color="#063F75"/>
</linearGradient>
<linearGradient id="paint1_linear_130_1626" x1="35.6829" y1="35.5434" x2="-15.7696" y2="17.0339" gradientUnits="userSpaceOnUse">
<stop stop-color="#00B3F8"/>
<stop offset="0.25" stop-color="#0B9ADE"/>
<stop offset="0.5" stop-color="#0F82C3"/>
<stop offset="1" stop-color="#063F75"/>
</linearGradient>
</defs>
</svg>
