<svg width="27" height="27" viewBox="0 0 27 27" fill="none" xmlns="http://www.w3.org/2000/svg">
<rect x="6.05469" y="6.21875" width="17.4033" height="16.712" fill="#D9D9D9"/>
<mask id="mask0_146_2815" style="mask-type:luminance" maskUnits="userSpaceOnUse" x="0" y="0" width="27" height="27">
<path fill-rule="evenodd" clip-rule="evenodd" d="M0.135569 26.3098C0.110023 26.4021 0.109173 26.4995 0.133103 26.5922C0.157033 26.6849 0.204897 26.7696 0.271865 26.8378C0.338832 26.906 0.422534 26.9552 0.514522 26.9806C0.60651 27.0059 0.70353 27.0065 0.795791 26.9821L7.04146 25.3435C9.02305 26.421 11.241 26.9856 13.4946 26.9862H13.5C20.9373 26.9862 27 20.9352 27 13.4959C27.0045 11.7218 26.6576 9.96464 25.9794 8.32648C25.3012 6.68832 24.3052 5.20193 23.0495 3.9538C21.7959 2.69543 20.3068 1.6983 18.6679 1.01977C17.0291 0.341234 15.2727 -0.00531281 13.5 6.15652e-05C6.06265 6.15652e-05 0 6.05112 0 13.4891C0 15.8559 0.620907 18.1805 1.80307 20.2315L0.135569 26.3098ZM9.22141 7.0365C9.46951 7.0433 9.74471 7.05691 10.0064 7.63943C10.1799 8.02732 10.4714 8.74185 10.71 9.32436C10.8957 9.77758 11.0475 10.1505 11.0855 10.2267C11.1736 10.4009 11.2265 10.601 11.1126 10.8364L11.0746 10.9154C10.9825 11.1059 10.9174 11.242 10.7628 11.419L10.569 11.6503C10.4537 11.7919 10.3385 11.9307 10.2409 12.0287C10.066 12.2029 9.8857 12.3907 10.0863 12.7391C10.287 13.0876 10.9919 14.2335 12.0318 15.1577C12.7923 15.8463 13.6649 16.3987 14.6116 16.7909C14.7065 16.8317 14.7834 16.8662 14.8421 16.8943C15.1905 17.0685 15.3979 17.0413 15.5986 16.8072C15.8006 16.5718 16.4703 15.7878 16.7062 15.4394C16.9339 15.091 17.1671 15.1454 17.4898 15.2652C17.8124 15.3863 19.5287 16.2315 19.8772 16.4043L20.071 16.4996C20.3137 16.6153 20.4777 16.6956 20.5482 16.8127C20.635 16.961 20.635 17.6565 20.3476 18.4758C20.052 19.2924 18.6299 20.0764 17.986 20.1362L17.8029 20.158C17.2119 20.2288 16.4635 20.3213 13.7955 19.2666C10.5066 17.9682 8.33615 14.748 7.89826 14.0961L7.82641 13.9926L7.81963 13.9817C7.61899 13.7136 6.39751 12.0736 6.39751 10.3805C6.39751 8.7609 7.1933 7.91707 7.55527 7.53327L7.61899 7.46522C7.73615 7.33234 7.8793 7.22511 8.03953 7.15018C8.19976 7.07525 8.37364 7.03424 8.55035 7.02969C8.78488 7.02969 9.02077 7.02969 9.22141 7.0365Z" fill="white"/>
</mask>
<g mask="url(#mask0_146_2815)">
<path fill-rule="evenodd" clip-rule="evenodd" d="M0.135569 26.3098C0.110023 26.4021 0.109173 26.4995 0.133103 26.5922C0.157033 26.6849 0.204897 26.7696 0.271865 26.8378C0.338832 26.906 0.422534 26.9552 0.514522 26.9806C0.60651 27.0059 0.70353 27.0065 0.795791 26.9821L7.04146 25.3435C9.02305 26.421 11.241 26.9856 13.4946 26.9862H13.5C20.9373 26.9862 27 20.9352 27 13.4959C27.0045 11.7218 26.6576 9.96464 25.9794 8.32648C25.3012 6.68832 24.3052 5.20193 23.0495 3.9538C21.7959 2.69543 20.3068 1.6983 18.6679 1.01977C17.0291 0.341234 15.2727 -0.00531281 13.5 6.15652e-05C6.06265 6.15652e-05 0 6.05112 0 13.4891C0 15.8559 0.620907 18.1805 1.80307 20.2315L0.135569 26.3098ZM9.22141 7.0365C9.46951 7.0433 9.74471 7.05691 10.0064 7.63943C10.1799 8.02732 10.4714 8.74185 10.71 9.32436C10.8957 9.77758 11.0475 10.1505 11.0855 10.2267C11.1736 10.4009 11.2265 10.601 11.1126 10.8364L11.0746 10.9154C10.9825 11.1059 10.9174 11.242 10.7628 11.419L10.569 11.6503C10.4537 11.7919 10.3385 11.9307 10.2409 12.0287C10.066 12.2029 9.8857 12.3907 10.0863 12.7391C10.287 13.0876 10.9919 14.2335 12.0318 15.1577C12.7923 15.8463 13.6649 16.3987 14.6116 16.7909C14.7065 16.8317 14.7834 16.8662 14.8421 16.8943C15.1905 17.0685 15.3979 17.0413 15.5986 16.8072C15.8006 16.5718 16.4703 15.7878 16.7062 15.4394C16.9339 15.091 17.1671 15.1454 17.4898 15.2652C17.8124 15.3863 19.5287 16.2315 19.8772 16.4043L20.071 16.4996C20.3137 16.6153 20.4777 16.6956 20.5482 16.8127C20.635 16.961 20.635 17.6565 20.3476 18.4758C20.052 19.2924 18.6299 20.0764 17.986 20.1362L17.8029 20.158C17.2119 20.2288 16.4635 20.3213 13.7955 19.2666C10.5066 17.9682 8.33615 14.748 7.89826 14.0961L7.82641 13.9926L7.81963 13.9817C7.61899 13.7136 6.39751 12.0736 6.39751 10.3805C6.39751 8.7609 7.1933 7.91707 7.55527 7.53327L7.61899 7.46522C7.73615 7.33234 7.8793 7.22511 8.03953 7.15018C8.19976 7.07525 8.37364 7.03424 8.55035 7.02969C8.78488 7.02969 9.02077 7.02969 9.22141 7.0365Z" fill="url(#paint0_linear_146_2815)" stroke="url(#paint1_linear_146_2815)" stroke-width="2" stroke-linejoin="round"/>
</g>
<defs>
<linearGradient id="paint0_linear_146_2815" x1="27" y1="27" x2="-11.9672" y2="13.0368" gradientUnits="userSpaceOnUse">
<stop stop-color="#00B3F8"/>
<stop offset="0.25" stop-color="#0B9ADE"/>
<stop offset="0.5" stop-color="#0F82C3"/>
<stop offset="1" stop-color="#063F75"/>
</linearGradient>
<linearGradient id="paint1_linear_146_2815" x1="27" y1="27" x2="-11.9672" y2="13.0368" gradientUnits="userSpaceOnUse">
<stop stop-color="#00B3F8"/>
<stop offset="0.25" stop-color="#0B9ADE"/>
<stop offset="0.5" stop-color="#0F82C3"/>
<stop offset="1" stop-color="#063F75"/>
</linearGradient>
</defs>
</svg>
